<svg xmlns="http://www.w3.org/2000/svg" xmlns:xlink="http://www.w3.org/1999/xlink" width="500" zoomAndPan="magnify" viewBox="0 0 375 374.999991" height="500" preserveAspectRatio="xMidYMid meet" version="1.0"><defs><g/><clipPath id="6db4e49163"><path d="M 104.402344 76.785156 L 270.902344 76.785156 L 270.902344 243 L 104.402344 243 Z M 104.402344 76.785156 " clip-rule="nonzero"/></clipPath><clipPath id="e8e78db565"><path d="M 164.117188 62.652344 L 213.253906 62.652344 L 213.253906 75.40625 L 164.117188 75.40625 Z M 164.117188 62.652344 " clip-rule="nonzero"/></clipPath><clipPath id="445de1c483"><path d="M 176.019531 84.472656 L 201.238281 84.472656 L 201.238281 93.464844 L 176.019531 93.464844 Z M 176.019531 84.472656 " clip-rule="nonzero"/></clipPath><clipPath id="4a753fe39d"><path d="M 161.738281 60.0625 L 213 60.0625 L 213 74 L 161.738281 74 Z M 161.738281 60.0625 " clip-rule="nonzero"/></clipPath><clipPath id="01d86ce879"><path d="M 221.546875 201 L 240 201 L 240 230.839844 L 221.546875 230.839844 Z M 221.546875 201 " clip-rule="nonzero"/></clipPath><clipPath id="720d22764f"><path d="M 230 184.339844 L 243.296875 184.339844 L 243.296875 215 L 230 215 Z M 230 184.339844 " clip-rule="nonzero"/></clipPath></defs><rect x="-37.5" width="450" fill="#ffffff" y="-37.499999" height="449.999989" fill-opacity="1"/><rect x="-37.5" width="450" fill="#fbfcfa" y="-37.499999" height="449.999989" fill-opacity="1"/><g clip-path="url(#6db4e49163)"><path fill="#00ced1" d="M 270.558594 159.851562 C 270.558594 205.742188 233.359375 242.941406 187.46875 242.941406 C 141.574219 242.941406 104.375 205.742188 104.375 159.851562 C 104.375 113.960938 141.574219 76.757812 187.46875 76.757812 C 233.359375 76.757812 270.558594 113.960938 270.558594 159.851562 " fill-opacity="1" fill-rule="nonzero"/></g><path fill="#fbfcfa" d="M 201.761719 216.414062 L 173.171875 216.414062 L 173.171875 201.433594 L 201.761719 201.433594 L 201.761719 216.414062 " fill-opacity="1" fill-rule="nonzero"/><path stroke-linecap="round" transform="matrix(0.0621756, 0, 0, -0.0621756, 55.282474, 292.03627)" fill="none" stroke-linejoin="round" d="M 2355.896924 1216.268735 L 1896.072563 1216.268735 L 1896.072563 1457.206899 L 2355.896924 1457.206899 Z M 2355.896924 1216.268735 " stroke="#040505" stroke-width="50" stroke-opacity="1" stroke-miterlimit="10"/><path fill="#fbfcfa" d="M 244.339844 201.433594 L 130.597656 201.433594 L 130.597656 134.140625 L 244.339844 134.140625 L 244.339844 201.433594 " fill-opacity="1" fill-rule="nonzero"/><path stroke-linecap="round" transform="matrix(0.0621756, 0, 0, -0.0621756, 55.282474, 292.03627)" fill="none" stroke-linejoin="round" d="M 3040.701616 1457.206899 L 1211.330697 1457.206899 L 1211.330697 2539.512443 L 3040.701616 2539.512443 Z M 3040.701616 1457.206899 " stroke="#040505" stroke-width="50" stroke-opacity="1" stroke-miterlimit="10"/><path fill="#00ced1" d="M 235.816406 194.515625 L 139.125 194.515625 L 139.125 141.054688 L 235.816406 141.054688 L 235.816406 194.515625 " fill-opacity="1" fill-rule="nonzero"/><path stroke-linecap="round" transform="matrix(0.0621756, 0, 0, -0.0621756, 55.282474, 292.03627)" fill="none" stroke-linejoin="round" d="M 2903.615025 1568.471955 L 1348.480114 1568.471955 L 1348.480114 2428.310213 L 2903.615025 2428.310213 Z M 2903.615025 1568.471955 " stroke="#040505" stroke-width="30" stroke-opacity="1" stroke-miterlimit="10"/><path fill="#fbfcfa" d="M 211.0625 221.96875 L 163.867188 221.96875 L 163.867188 216.414062 L 211.0625 216.414062 L 211.0625 221.96875 " fill-opacity="1" fill-rule="nonzero"/><path stroke-linecap="round" transform="matrix(0.0621756, 0, 0, -0.0621756, 55.282474, 292.03627)" fill="none" stroke-linejoin="round" d="M 2505.485912 1126.929994 L 1746.420748 1126.929994 L 1746.420748 1216.268735 L 2505.485912 1216.268735 Z M 2505.485912 1126.929994 " stroke="#040505" stroke-width="50" stroke-opacity="1" stroke-miterlimit="10"/><path stroke-linecap="round" transform="matrix(0.0621756, 0, 0, -0.0621756, 55.282474, 292.03627)" fill="none" stroke-linejoin="round" d="M 2211.89946 2726.106015 L 2211.89946 2856.281732 L 2398.869989 2856.281732 L 2398.869989 3138.371004 " stroke="#040505" stroke-width="30" stroke-opacity="1" stroke-miterlimit="10"/><path stroke-linecap="round" transform="matrix(0.0621756, 0, 0, -0.0621756, 55.282474, 292.03627)" fill="none" stroke-linejoin="round" d="M 2164.402915 1917.031261 L 2164.402915 2047.206978 L 2259.270354 2047.206978 L 2259.270354 2309.129066 " stroke="#040505" stroke-width="30" stroke-opacity="1" stroke-miterlimit="10"/><path stroke-linecap="round" transform="matrix(0.0621756, 0, 0, -0.0621756, 55.282474, 292.03627)" fill="none" stroke-linejoin="round" d="M 2118.414196 2726.106015 L 2118.414196 2969.682876 L 2211.89946 2969.682876 L 2211.89946 3073.974233 " stroke="#040505" stroke-width="30" stroke-opacity="1" stroke-miterlimit="10"/><path stroke-linecap="round" transform="matrix(0.0621756, 0, 0, -0.0621756, 55.282474, 292.03627)" fill="none" stroke-linejoin="round" d="M 2342.075178 2676.97599 L 2529.108533 2676.97599 L 2529.108533 2896.113492 " stroke="#040505" stroke-width="30" stroke-opacity="1" stroke-miterlimit="10"/><path stroke-linecap="round" transform="matrix(0.0621756, 0, 0, -0.0621756, 55.282474, 292.03627)" fill="none" stroke-linejoin="round" d="M 2561.401158 2157.529642 L 2561.401158 2344.500171 L 2342.075178 2344.500171 " stroke="#040505" stroke-width="30" stroke-opacity="1" stroke-miterlimit="10"/><path stroke-linecap="round" transform="matrix(0.0621756, 0, 0, -0.0621756, 55.282474, 292.03627)" fill="none" stroke-linejoin="round" d="M 2040.195679 2726.106015 L 2040.195679 2856.281732 L 1853.099498 2856.281732 L 1853.099498 3138.371004 " stroke="#040505" stroke-width="30" stroke-opacity="1" stroke-miterlimit="10"/><path stroke-linecap="round" transform="matrix(0.0621756, 0, 0, -0.0621756, 55.282474, 292.03627)" fill="none" stroke-linejoin="round" d="M 2066.205692 2050.976545 L 2066.205692 2153.697249 L 2010.981533 2153.697249 L 2010.981533 2309.129066 " stroke="#040505" stroke-width="30" stroke-opacity="1" stroke-miterlimit="10"/><path stroke-linecap="round" transform="matrix(0.0621756, 0, 0, -0.0621756, 55.282474, 292.03627)" fill="none" stroke-linejoin="round" d="M 1909.894309 2676.97599 L 1722.92378 2676.97599 L 1722.92378 2896.113492 " stroke="#040505" stroke-width="30" stroke-opacity="1" stroke-miterlimit="10"/><path stroke-linecap="round" transform="matrix(0.0621756, 0, 0, -0.0621756, 55.282474, 292.03627)" fill="none" stroke-linejoin="round" d="M 1690.693981 2157.529642 L 1690.693981 2344.500171 L 1909.894309 2344.500171 " stroke="#040505" stroke-width="30" stroke-opacity="1" stroke-miterlimit="10"/><path fill="#fbfcfa" d="M 174.984375 149.398438 C 174.46875 149.398438 174.050781 148.976562 174.050781 148.464844 L 174.050781 122.539062 C 174.050781 122.023438 174.46875 121.605469 174.984375 121.605469 L 200.902344 121.605469 C 201.421875 121.605469 201.835938 122.023438 201.835938 122.539062 L 201.835938 148.464844 C 201.835938 148.976562 201.421875 149.398438 200.902344 149.398438 L 174.984375 149.398438 " fill-opacity="1" fill-rule="nonzero"/><path fill="#01225a" d="M 200.902344 120.675781 L 174.984375 120.675781 C 173.949219 120.675781 173.117188 121.507812 173.117188 122.539062 L 173.117188 148.464844 C 173.117188 149.492188 173.949219 150.332031 174.984375 150.332031 L 200.902344 150.332031 C 201.9375 150.332031 202.769531 149.492188 202.769531 148.464844 L 202.769531 122.539062 C 202.769531 121.507812 201.9375 120.675781 200.902344 120.675781 Z M 200.902344 122.539062 L 200.902344 148.464844 L 174.984375 148.464844 L 174.984375 122.539062 L 200.902344 122.539062 " fill-opacity="1" fill-rule="nonzero"/><path fill="#fbfcfa" d="M 173.90625 100.3125 C 173.90625 102.195312 172.382812 103.71875 170.5 103.71875 C 168.621094 103.71875 167.09375 102.195312 167.09375 100.3125 C 167.09375 98.433594 168.621094 96.90625 170.5 96.90625 C 172.382812 96.90625 173.90625 98.433594 173.90625 100.3125 " fill-opacity="1" fill-rule="nonzero"/><path stroke-linecap="round" transform="matrix(0.0621756, 0, 0, -0.0621756, 55.282474, 292.03627)" fill="none" stroke-linejoin="round" d="M 1907.883873 3083.586629 C 1907.883873 3053.30444 1883.381687 3028.802254 1853.099498 3028.802254 C 1822.880135 3028.802254 1798.315122 3053.30444 1798.315122 3083.586629 C 1798.315122 3113.805992 1822.880135 3138.371004 1853.099498 3138.371004 C 1883.381687 3138.371004 1907.883873 3113.805992 1907.883873 3083.586629 Z M 1907.883873 3083.586629 " stroke="#040505" stroke-width="30" stroke-opacity="1" stroke-miterlimit="10"/><path fill="#fbfcfa" d="M 196.214844 100.3125 C 196.214844 102.195312 194.6875 103.71875 192.808594 103.71875 C 190.925781 103.71875 189.402344 102.195312 189.402344 100.3125 C 189.402344 98.433594 190.925781 96.90625 192.808594 96.90625 C 194.6875 96.90625 196.214844 98.433594 196.214844 100.3125 " fill-opacity="1" fill-rule="nonzero"/><path stroke-linecap="round" transform="matrix(0.0621756, 0, 0, -0.0621756, 55.282474, 292.03627)" fill="none" stroke-linejoin="round" d="M 2266.683836 3083.586629 C 2266.683836 3053.30444 2242.118823 3028.802254 2211.89946 3028.802254 C 2181.617271 3028.802254 2157.115085 3053.30444 2157.115085 3083.586629 C 2157.115085 3113.805992 2181.617271 3138.371004 2211.89946 3138.371004 C 2242.118823 3138.371004 2266.683836 3113.805992 2266.683836 3083.586629 Z M 2266.683836 3083.586629 " stroke="#040505" stroke-width="30" stroke-opacity="1" stroke-miterlimit="10"/><path fill="#fbfcfa" d="M 207.84375 97.5 C 207.84375 99.386719 206.3125 100.910156 204.433594 100.910156 C 202.550781 100.910156 201.027344 99.386719 201.027344 97.5 C 201.027344 95.617188 202.550781 94.09375 204.433594 94.09375 C 206.3125 94.09375 207.84375 95.617188 207.84375 97.5 " fill-opacity="1" fill-rule="nonzero"/><path stroke-linecap="round" transform="matrix(0.0621756, 0, 0, -0.0621756, 55.282474, 292.03627)" fill="none" stroke-linejoin="round" d="M 2453.71719 3128.821434 C 2453.71719 3098.476419 2429.089352 3073.974233 2398.869989 3073.974233 C 2368.5878 3073.974233 2344.085614 3098.476419 2344.085614 3128.821434 C 2344.085614 3159.103624 2368.5878 3183.60581 2398.869989 3183.60581 C 2429.089352 3183.60581 2453.71719 3159.103624 2453.71719 3128.821434 Z M 2453.71719 3128.821434 " stroke="#040505" stroke-width="30" stroke-opacity="1" stroke-miterlimit="10"/><path fill="#fbfcfa" d="M 215.9375 113.640625 C 215.9375 115.519531 214.414062 117.050781 212.53125 117.050781 C 210.652344 117.050781 209.125 115.519531 209.125 113.640625 C 209.125 111.757812 210.652344 110.234375 212.53125 110.234375 C 214.414062 110.234375 215.9375 111.757812 215.9375 113.640625 " fill-opacity="1" fill-rule="nonzero"/><path stroke-linecap="round" transform="matrix(0.0621756, 0, 0, -0.0621756, 55.282474, 292.03627)" fill="none" stroke-linejoin="round" d="M 2583.892908 2869.223913 C 2583.892908 2839.00455 2559.390722 2814.376711 2529.108533 2814.376711 C 2498.88917 2814.376711 2474.324157 2839.00455 2474.324157 2869.223913 C 2474.324157 2899.506102 2498.88917 2924.008288 2529.108533 2924.008288 C 2559.390722 2924.008288 2583.892908 2899.506102 2583.892908 2869.223913 Z M 2583.892908 2869.223913 " stroke="#040505" stroke-width="30" stroke-opacity="1" stroke-miterlimit="10"/><path fill="#fbfcfa" d="M 217.945312 156.847656 C 217.945312 158.730469 216.417969 160.261719 214.539062 160.261719 C 212.65625 160.261719 211.132812 158.730469 211.132812 156.847656 C 211.132812 154.96875 212.65625 153.441406 214.539062 153.441406 C 216.417969 153.441406 217.945312 154.96875 217.945312 156.847656 " fill-opacity="1" fill-rule="nonzero"/><path stroke-linecap="round" transform="matrix(0.0621756, 0, 0, -0.0621756, 55.282474, 292.03627)" fill="none" stroke-linejoin="round" d="M 2616.185533 2174.304216 C 2616.185533 2144.022027 2591.620521 2119.394188 2561.401158 2119.394188 C 2531.118968 2119.394188 2506.616782 2144.022027 2506.616782 2174.304216 C 2506.616782 2204.523579 2531.118968 2229.088591 2561.401158 2229.088591 C 2591.620521 2229.088591 2616.185533 2204.523579 2616.185533 2174.304216 Z M 2616.185533 2174.304216 " stroke="#040505" stroke-width="30" stroke-opacity="1" stroke-miterlimit="10"/><path fill="#fbfcfa" d="M 193.304688 172.136719 C 193.304688 174.019531 191.78125 175.542969 189.898438 175.542969 C 188.015625 175.542969 186.492188 174.019531 186.492188 172.136719 C 186.492188 170.257812 188.015625 168.730469 189.898438 168.730469 C 191.78125 168.730469 193.304688 170.257812 193.304688 172.136719 " fill-opacity="1" fill-rule="nonzero"/><path stroke-linecap="round" transform="matrix(0.0621756, 0, 0, -0.0621756, 55.282474, 292.03627)" fill="none" stroke-linejoin="round" d="M 2219.878377 1928.402788 C 2219.878377 1898.120599 2195.376191 1873.618413 2165.094002 1873.618413 C 2134.811813 1873.618413 2110.309627 1898.120599 2110.309627 1928.402788 C 2110.309627 1958.622151 2134.811813 1983.187164 2165.094002 1983.187164 C 2195.376191 1983.187164 2219.878377 1958.622151 2219.878377 1928.402788 Z M 2219.878377 1928.402788 " stroke="#040505" stroke-width="30" stroke-opacity="1" stroke-miterlimit="10"/><path fill="#fbfcfa" d="M 187.15625 164.097656 C 187.15625 165.980469 185.628906 167.503906 183.75 167.503906 C 181.867188 167.503906 180.34375 165.980469 180.34375 164.097656 C 180.34375 162.21875 181.867188 160.691406 183.75 160.691406 C 185.628906 160.691406 187.15625 162.21875 187.15625 164.097656 " fill-opacity="1" fill-rule="nonzero"/><path stroke-linecap="round" transform="matrix(0.0621756, 0, 0, -0.0621756, 55.282474, 292.03627)" fill="none" stroke-linejoin="round" d="M 2120.990067 2057.69894 C 2120.990067 2027.416751 2096.425055 2002.914565 2066.205692 2002.914565 C 2035.923502 2002.914565 2011.421316 2027.416751 2011.421316 2057.69894 C 2011.421316 2087.918303 2035.923502 2112.483315 2066.205692 2112.483315 C 2096.425055 2112.483315 2120.990067 2087.918303 2120.990067 2057.69894 Z M 2120.990067 2057.69894 " stroke="#040505" stroke-width="30" stroke-opacity="1" stroke-miterlimit="10"/><path fill="#fbfcfa" d="M 163.808594 156.847656 C 163.808594 158.730469 162.28125 160.261719 160.402344 160.261719 C 158.519531 160.261719 156.996094 158.730469 156.996094 156.847656 C 156.996094 154.96875 158.519531 153.441406 160.402344 153.441406 C 162.28125 153.441406 163.808594 154.96875 163.808594 156.847656 " fill-opacity="1" fill-rule="nonzero"/><path stroke-linecap="round" transform="matrix(0.0621756, 0, 0, -0.0621756, 55.282474, 292.03627)" fill="none" stroke-linejoin="round" d="M 1745.478357 2174.304216 C 1745.478357 2144.022027 1720.913344 2119.394188 1690.693981 2119.394188 C 1660.411792 2119.394188 1635.909606 2144.022027 1635.909606 2174.304216 C 1635.909606 2204.523579 1660.411792 2229.088591 1690.693981 2229.088591 C 1720.913344 2229.088591 1745.478357 2204.523579 1745.478357 2174.304216 Z M 1745.478357 2174.304216 " stroke="#040505" stroke-width="30" stroke-opacity="1" stroke-miterlimit="10"/><path fill="#fbfcfa" d="M 165.8125 111.726562 C 165.8125 113.605469 164.28125 115.132812 162.40625 115.132812 C 160.519531 115.132812 158.992188 113.605469 158.992188 111.726562 C 158.992188 109.84375 160.519531 108.3125 162.40625 108.3125 C 164.28125 108.3125 165.8125 109.84375 165.8125 111.726562 " fill-opacity="1" fill-rule="nonzero"/><path stroke-linecap="round" transform="matrix(0.0621756, 0, 0, -0.0621756, 55.282474, 292.03627)" fill="none" stroke-linejoin="round" d="M 1777.708155 2900.008711 C 1777.708155 2869.789348 1753.080317 2845.224336 1722.92378 2845.224336 C 1692.578765 2845.224336 1668.013752 2869.789348 1668.013752 2900.008711 C 1668.013752 2930.2909 1692.578765 2954.918738 1722.92378 2954.918738 C 1753.080317 2954.918738 1777.708155 2930.2909 1777.708155 2900.008711 Z M 1777.708155 2900.008711 " stroke="#040505" stroke-width="30" stroke-opacity="1" stroke-miterlimit="10"/><path fill="#00ced1" d="M 197.261719 134.820312 C 197.261719 139.917969 193.132812 144.046875 188.035156 144.046875 C 182.941406 144.046875 178.808594 139.917969 178.808594 134.820312 C 178.808594 129.726562 182.941406 125.59375 188.035156 125.59375 C 193.132812 125.59375 197.261719 129.726562 197.261719 134.820312 " fill-opacity="1" fill-rule="nonzero"/><path stroke-linecap="round" transform="matrix(0.0621756, 0, 0, -0.0621756, 55.282474, 292.03627)" fill="none" stroke-linejoin="round" d="M 2283.521235 2528.580698 C 2283.521235 2446.592614 2217.114028 2380.185406 2135.125944 2380.185406 C 2053.200685 2380.185406 1986.730652 2446.592614 1986.730652 2528.580698 C 1986.730652 2610.505957 2053.200685 2676.97599 2135.125944 2676.97599 C 2217.114028 2676.97599 2283.521235 2610.505957 2283.521235 2528.580698 Z M 2283.521235 2528.580698 " stroke="#040505" stroke-width="30" stroke-opacity="1" stroke-miterlimit="10"/><g clip-path="url(#e8e78db565)"><path fill="#bacbe0" d="M 210.316406 75.3125 C 209.753906 75.3125 209.191406 75.152344 208.691406 74.820312 C 202.757812 70.863281 195.855469 68.773438 188.726562 68.773438 C 181.59375 68.773438 174.691406 70.863281 168.761719 74.820312 C 167.410156 75.71875 165.585938 75.355469 164.6875 74.007812 C 163.789062 72.660156 164.152344 70.835938 165.5 69.933594 C 172.398438 65.332031 180.429688 62.902344 188.726562 62.902344 C 197.019531 62.902344 205.050781 65.332031 211.949219 69.933594 C 213.296875 70.835938 213.660156 72.660156 212.761719 74.007812 C 212.195312 74.855469 211.265625 75.3125 210.316406 75.3125 " fill-opacity="1" fill-rule="nonzero"/></g><path fill="#bacbe0" d="M 173.167969 84.390625 C 172.21875 84.390625 171.289062 83.929688 170.722656 83.082031 C 169.824219 81.734375 170.1875 79.910156 171.535156 79.011719 C 176.640625 75.605469 182.585938 73.804688 188.726562 73.804688 C 194.863281 73.804688 200.808594 75.605469 205.914062 79.011719 C 207.261719 79.910156 207.625 81.734375 206.726562 83.082031 C 205.828125 84.433594 204.003906 84.796875 202.652344 83.898438 C 198.519531 81.136719 193.699219 79.675781 188.726562 79.675781 C 183.75 79.675781 178.933594 81.136719 174.792969 83.898438 C 174.292969 84.230469 173.726562 84.390625 173.167969 84.390625 " fill-opacity="1" fill-rule="nonzero"/><g clip-path="url(#445de1c483)"><path fill="#bacbe0" d="M 198.25 93.464844 C 197.691406 93.464844 197.125 93.304688 196.625 92.96875 C 194.277344 91.40625 191.546875 90.582031 188.726562 90.582031 C 185.902344 90.582031 183.171875 91.40625 180.824219 92.96875 C 179.476562 93.867188 177.652344 93.503906 176.753906 92.15625 C 175.855469 90.804688 176.222656 88.984375 177.570312 88.085938 C 180.882812 85.875 184.738281 84.710938 188.726562 84.710938 C 192.710938 84.710938 196.566406 85.875 199.878906 88.085938 C 201.226562 88.984375 201.59375 90.804688 200.695312 92.15625 C 200.128906 93.003906 199.199219 93.464844 198.25 93.464844 " fill-opacity="1" fill-rule="nonzero"/></g><g clip-path="url(#4a753fe39d)"><path fill="#01225a" d="M 187.089844 61.519531 C 178.9375 61.519531 171.042969 63.910156 164.261719 68.433594 C 163.765625 68.765625 163.429688 69.269531 163.3125 69.851562 C 163.195312 70.433594 163.3125 71.027344 163.644531 71.523438 C 163.972656 72.019531 164.476562 72.355469 165.058594 72.472656 C 165.644531 72.585938 166.238281 72.46875 166.730469 72.140625 C 172.777344 68.105469 179.820312 65.972656 187.089844 65.972656 C 194.363281 65.972656 201.402344 68.105469 207.449219 72.140625 C 207.816406 72.386719 208.242188 72.515625 208.683594 72.515625 C 209.429688 72.515625 210.125 72.144531 210.535156 71.523438 C 210.867188 71.027344 210.984375 70.433594 210.867188 69.851562 C 210.753906 69.269531 210.414062 68.765625 209.921875 68.433594 C 203.140625 63.910156 195.246094 61.519531 187.089844 61.519531 Z M 165.503906 73.933594 C 165.261719 73.933594 165.023438 73.910156 164.78125 73.859375 C 163.828125 73.671875 163.003906 73.117188 162.464844 72.308594 C 161.925781 71.5 161.730469 70.527344 161.921875 69.574219 C 162.113281 68.621094 162.664062 67.796875 163.472656 67.253906 C 170.488281 62.574219 178.65625 60.101562 187.089844 60.101562 C 195.527344 60.101562 203.691406 62.574219 210.707031 67.253906 C 211.515625 67.796875 212.066406 68.621094 212.257812 69.574219 C 212.449219 70.527344 212.257812 71.5 211.714844 72.308594 C 211.039062 73.324219 209.902344 73.933594 208.683594 73.933594 C 207.960938 73.933594 207.261719 73.71875 206.660156 73.320312 C 200.847656 69.441406 194.082031 67.390625 187.089844 67.390625 C 180.101562 67.390625 173.332031 69.441406 167.519531 73.320312 C 166.914062 73.722656 166.214844 73.933594 165.503906 73.933594 " fill-opacity="1" fill-rule="nonzero"/></g><path fill="#01225a" d="M 187.089844 72.421875 C 181.09375 72.421875 175.285156 74.183594 170.292969 77.511719 C 169.273438 78.191406 168.996094 79.578125 169.675781 80.601562 C 170.089844 81.222656 170.785156 81.59375 171.53125 81.59375 C 171.972656 81.59375 172.398438 81.460938 172.765625 81.21875 C 177.023438 78.378906 181.976562 76.878906 187.089844 76.878906 C 192.207031 76.878906 197.160156 78.378906 201.414062 81.21875 C 202.4375 81.898438 203.820312 81.621094 204.503906 80.601562 C 204.832031 80.105469 204.949219 79.511719 204.832031 78.929688 C 204.71875 78.34375 204.378906 77.839844 203.886719 77.511719 C 198.898438 74.183594 193.089844 72.421875 187.089844 72.421875 Z M 171.535156 83.007812 C 170.3125 83.007812 169.175781 82.402344 168.5 81.386719 C 167.382812 79.714844 167.835938 77.449219 169.507812 76.332031 C 174.730469 72.847656 180.8125 71.007812 187.089844 71.007812 C 193.371094 71.007812 199.449219 72.847656 204.671875 76.332031 C 205.480469 76.871094 206.035156 77.695312 206.222656 78.648438 C 206.414062 79.605469 206.222656 80.578125 205.679688 81.386719 C 204.566406 83.058594 202.300781 83.511719 200.628906 82.394531 C 196.605469 79.714844 191.925781 78.296875 187.089844 78.296875 C 182.257812 78.296875 177.574219 79.714844 173.554688 82.394531 C 172.953125 82.796875 172.253906 83.007812 171.535156 83.007812 " fill-opacity="1" fill-rule="nonzero"/><path fill="#01225a" d="M 187.089844 87.78125 C 190.054688 87.78125 192.921875 88.652344 195.382812 90.292969 C 195.75 90.535156 196.175781 90.664062 196.613281 90.664062 C 197.363281 90.664062 198.058594 90.292969 198.472656 89.671875 C 199.152344 88.648438 198.875 87.265625 197.851562 86.582031 C 194.65625 84.453125 190.933594 83.328125 187.089844 83.328125 C 183.246094 83.328125 179.527344 84.453125 176.328125 86.582031 C 175.308594 87.265625 175.03125 88.648438 175.710938 89.671875 C 176.390625 90.691406 177.777344 90.972656 178.800781 90.289062 C 181.261719 88.652344 184.128906 87.78125 187.089844 87.78125 Z M 196.613281 92.082031 C 195.894531 92.082031 195.199219 91.871094 194.597656 91.46875 C 192.367188 89.984375 189.773438 89.199219 187.089844 89.199219 C 184.410156 89.199219 181.8125 89.984375 179.585938 91.46875 C 177.910156 92.582031 175.644531 92.128906 174.53125 90.457031 C 173.417969 88.785156 173.871094 86.519531 175.542969 85.402344 C 178.972656 83.121094 182.96875 81.910156 187.089844 81.910156 C 191.214844 81.910156 195.207031 83.121094 198.636719 85.402344 C 200.308594 86.519531 200.765625 88.785156 199.652344 90.457031 C 198.972656 91.472656 197.839844 92.082031 196.613281 92.082031 " fill-opacity="1" fill-rule="nonzero"/><g clip-path="url(#01d86ce879)"><path fill="#01225a" d="M 230.679688 230.5625 C 225.792969 230.5625 221.792969 226.5625 221.792969 221.671875 C 221.792969 219.382812 221.734375 216.953125 221.75 214.609375 C 221.765625 212.3125 221.542969 209.515625 222.273438 207.335938 C 223.445312 203.824219 227.011719 201.355469 230.679688 201.355469 C 234.15625 201.355469 237.632812 203.574219 238.949219 206.839844 C 239.785156 208.917969 239.628906 211.625 239.605469 213.824219 C 239.578125 216.441406 239.570312 219.066406 239.570312 221.671875 C 239.570312 226.5625 235.570312 230.5625 230.679688 230.5625 Z M 230.679688 230.5625 " fill-opacity="1" fill-rule="nonzero"/></g><path fill="#fbfcfa" d="M 230.679688 212.746094 C 229.34375 212.746094 228.253906 211.65625 228.253906 210.316406 L 228.253906 207.339844 C 228.253906 206 229.34375 204.910156 230.679688 204.910156 C 232.019531 204.910156 233.109375 206 233.109375 207.339844 L 233.109375 210.316406 C 233.109375 211.65625 232.019531 212.746094 230.679688 212.746094 Z M 230.679688 205.984375 C 229.933594 205.984375 229.328125 206.59375 229.328125 207.339844 L 229.328125 210.320312 C 229.328125 211.066406 229.933594 211.671875 230.679688 211.671875 C 231.429688 211.671875 232.035156 211.066406 232.035156 210.320312 L 232.035156 207.339844 C 232.035156 206.59375 231.429688 205.984375 230.679688 205.984375 Z M 230.679688 205.984375 " fill-opacity="1" fill-rule="nonzero"/><g clip-path="url(#720d22764f)"><path fill="#fbfcfa" d="M 230.679688 214.621094 C 230.394531 214.621094 230.160156 214.394531 230.144531 214.109375 C 230.027344 211.53125 230.027344 208.890625 230.136719 206.253906 C 230.152344 205.898438 230.160156 205.496094 230.171875 205.070312 C 230.265625 201.472656 230.410156 196.035156 233.394531 194.171875 C 233.894531 193.863281 234.589844 193.515625 235.390625 193.109375 C 237.855469 191.875 241.574219 190.003906 241.972656 187.820312 C 242.121094 187.011719 241.804688 186.195312 241.003906 185.324219 C 240.800781 185.105469 240.816406 184.765625 241.035156 184.566406 C 241.253906 184.367188 241.589844 184.378906 241.792969 184.597656 C 242.824219 185.714844 243.238281 186.867188 243.03125 188.011719 C 242.535156 190.722656 238.683594 192.65625 235.875 194.070312 C 235.09375 194.460938 234.417969 194.800781 233.964844 195.082031 C 231.464844 196.640625 231.328125 201.933594 231.246094 205.097656 C 231.234375 205.527344 231.222656 205.933594 231.207031 206.296875 C 231.097656 208.902344 231.101562 211.515625 231.214844 214.058594 C 231.230469 214.355469 231 214.605469 230.703125 214.617188 C 230.695312 214.621094 230.6875 214.621094 230.679688 214.621094 Z M 230.679688 214.621094 " fill-opacity="1" fill-rule="nonzero"/></g><g fill="#4169e1" fill-opacity="0.4"><g transform="translate(92.651548, 284.98466)"><g><path d="M 4.6875 0 C 4.007812 0 3.441406 -0.222656 2.984375 -0.671875 C 2.535156 -1.128906 2.3125 -1.6875 2.3125 -2.34375 L 2.3125 -12.984375 C 2.3125 -13.585938 2.5 -14.09375 2.875 -14.5 C 3.25 -14.914062 3.726562 -15.171875 4.3125 -15.265625 L 17.53125 -17.078125 C 18.164062 -17.171875 18.703125 -17.414062 19.140625 -17.8125 C 19.585938 -18.207031 19.8125 -18.722656 19.8125 -19.359375 C 19.8125 -20.003906 19.585938 -20.550781 19.140625 -21 C 18.703125 -21.445312 18.164062 -21.671875 17.53125 -21.671875 L 4.6875 -21.671875 C 4.007812 -21.671875 3.441406 -21.894531 2.984375 -22.34375 C 2.535156 -22.800781 2.3125 -23.359375 2.3125 -24.015625 L 2.3125 -25.65625 C 2.3125 -26.332031 2.535156 -26.890625 2.984375 -27.328125 C 3.441406 -27.773438 4.007812 -28 4.6875 -28 L 25.09375 -28 C 25.769531 -28 26.332031 -27.769531 26.78125 -27.3125 C 27.238281 -26.863281 27.46875 -26.300781 27.46875 -25.625 L 27.46875 -15.046875 C 27.46875 -14.460938 27.28125 -13.960938 26.90625 -13.546875 C 26.539062 -13.128906 26.066406 -12.875 25.484375 -12.78125 L 12.28125 -10.953125 C 11.632812 -10.859375 11.085938 -10.609375 10.640625 -10.203125 C 10.191406 -9.796875 9.96875 -9.273438 9.96875 -8.640625 C 9.96875 -7.992188 10.191406 -7.445312 10.640625 -7 C 11.085938 -6.550781 11.632812 -6.328125 12.28125 -6.328125 L 25.125 -6.328125 C 25.800781 -6.328125 26.359375 -6.101562 26.796875 -5.65625 C 27.242188 -5.21875 27.46875 -4.660156 27.46875 -3.984375 L 27.46875 -2.34375 C 27.46875 -1.6875 27.242188 -1.128906 26.796875 -0.671875 C 26.359375 -0.222656 25.800781 0 25.125 0 Z M 4.6875 0 "/></g></g></g><g fill="#4169e1" fill-opacity="0.4"><g transform="translate(122.429817, 284.98466)"><g><path d="M 10.8125 0 C 10.15625 0 9.597656 -0.222656 9.140625 -0.671875 C 8.691406 -1.128906 8.46875 -1.6875 8.46875 -2.34375 L 8.46875 -10.328125 C 8.46875 -10.953125 8.242188 -11.492188 7.796875 -11.953125 C 7.359375 -12.410156 6.8125 -12.640625 6.15625 -12.640625 L 4.65625 -12.640625 C 4 -12.640625 3.441406 -12.863281 2.984375 -13.3125 C 2.535156 -13.769531 2.3125 -14.335938 2.3125 -15.015625 L 2.3125 -25.71875 C 2.3125 -26.375 2.535156 -26.914062 2.984375 -27.34375 C 3.441406 -27.78125 4 -28 4.65625 -28 L 7.625 -28 C 8.28125 -28 8.832031 -27.769531 9.28125 -27.3125 C 9.738281 -26.863281 9.96875 -26.300781 9.96875 -25.625 L 9.96875 -19.421875 C 9.96875 -18.765625 10.195312 -18.207031 10.65625 -17.75 C 11.113281 -17.300781 11.65625 -17.078125 12.28125 -17.078125 C 12.9375 -17.078125 13.488281 -17.300781 13.9375 -17.75 C 14.394531 -18.207031 14.625 -18.765625 14.625 -19.421875 L 14.625 -25.625 C 14.625 -26.300781 14.851562 -26.863281 15.3125 -27.3125 C 15.769531 -27.769531 16.320312 -28 16.96875 -28 L 19.953125 -28 C 20.578125 -28 21.125 -27.78125 21.59375 -27.34375 C 22.0625 -26.914062 22.296875 -26.375 22.296875 -25.71875 L 22.296875 -15.015625 C 22.296875 -14.335938 22.070312 -13.769531 21.625 -13.3125 C 21.1875 -12.863281 20.628906 -12.640625 19.953125 -12.640625 L 18.40625 -12.640625 C 17.78125 -12.640625 17.242188 -12.414062 16.796875 -11.96875 C 16.359375 -11.53125 16.140625 -10.984375 16.140625 -10.328125 L 16.140625 -2.34375 C 16.140625 -1.6875 15.914062 -1.128906 15.46875 -0.671875 C 15.03125 -0.222656 14.472656 0 13.796875 0 Z M 10.8125 0 "/></g></g></g><g fill="#4169e1" fill-opacity="0.4"><g transform="translate(147.029257, 284.98466)"><g><path d="M 4.65625 0 C 4 0 3.441406 -0.222656 2.984375 -0.671875 C 2.535156 -1.128906 2.3125 -1.6875 2.3125 -2.34375 L 2.3125 -25.65625 C 2.3125 -26.332031 2.535156 -26.890625 2.984375 -27.328125 C 3.441406 -27.773438 4 -28 4.65625 -28 L 20.328125 -28 C 21.710938 -28 22.941406 -27.6875 24.015625 -27.0625 C 25.085938 -26.445312 25.929688 -25.601562 26.546875 -24.53125 C 27.160156 -23.457031 27.46875 -22.234375 27.46875 -20.859375 L 27.46875 -18.71875 C 27.46875 -18.019531 27.238281 -17.441406 26.78125 -16.984375 C 26.332031 -16.535156 25.757812 -16.3125 25.0625 -16.3125 L 24.984375 -16.3125 C 24.359375 -16.3125 23.820312 -16.085938 23.375 -15.640625 C 22.9375 -15.203125 22.71875 -14.65625 22.71875 -14 C 22.71875 -13.34375 22.9375 -12.789062 23.375 -12.34375 C 23.820312 -11.90625 24.359375 -11.6875 24.984375 -11.6875 L 25.3125 -11.6875 C 25.9375 -11.6875 26.453125 -11.488281 26.859375 -11.09375 C 27.265625 -10.695312 27.46875 -10.1875 27.46875 -9.5625 L 27.46875 -2.34375 C 27.46875 -1.6875 27.242188 -1.128906 26.796875 -0.671875 C 26.359375 -0.222656 25.800781 0 25.125 0 L 22.15625 0 C 21.5 0 20.941406 -0.222656 20.484375 -0.671875 C 20.035156 -1.128906 19.8125 -1.6875 19.8125 -2.34375 L 19.8125 -8.6875 C 19.8125 -9.3125 19.585938 -9.84375 19.140625 -10.28125 C 18.703125 -10.726562 18.15625 -10.953125 17.5 -10.953125 L 12.25 -10.953125 C 11.625 -10.953125 11.085938 -10.726562 10.640625 -10.28125 C 10.191406 -9.84375 9.96875 -9.3125 9.96875 -8.6875 L 9.96875 -2.34375 C 9.96875 -1.6875 9.742188 -1.128906 9.296875 -0.671875 C 8.859375 -0.222656 8.300781 0 7.625 0 Z M 12.25 -17.078125 L 17.5 -17.078125 C 18.15625 -17.078125 18.703125 -17.296875 19.140625 -17.734375 C 19.585938 -18.179688 19.8125 -18.722656 19.8125 -19.359375 C 19.8125 -20.003906 19.585938 -20.550781 19.140625 -21 C 18.703125 -21.445312 18.15625 -21.671875 17.5 -21.671875 L 12.25 -21.671875 C 11.625 -21.671875 11.085938 -21.445312 10.640625 -21 C 10.191406 -20.550781 9.96875 -20.003906 9.96875 -19.359375 C 9.96875 -18.722656 10.191406 -18.179688 10.640625 -17.734375 C 11.085938 -17.296875 11.625 -17.078125 12.25 -17.078125 Z M 12.25 -17.078125 "/></g></g></g><g fill="#4169e1" fill-opacity="0.4"><g transform="translate(176.807526, 284.98466)"><g><path d="M 10.890625 0 C 9.234375 0 7.753906 -0.363281 6.453125 -1.09375 C 5.160156 -1.832031 4.144531 -2.847656 3.40625 -4.140625 C 2.675781 -5.441406 2.3125 -6.921875 2.3125 -8.578125 L 2.3125 -19.421875 C 2.3125 -21.078125 2.675781 -22.550781 3.40625 -23.84375 C 4.144531 -25.144531 5.160156 -26.160156 6.453125 -26.890625 C 7.753906 -27.628906 9.234375 -28 10.890625 -28 L 13.65625 -28 C 15.3125 -28 16.785156 -27.628906 18.078125 -26.890625 C 19.367188 -26.160156 20.378906 -25.144531 21.109375 -23.84375 C 21.847656 -22.550781 22.21875 -21.078125 22.21875 -19.421875 L 22.21875 -8.578125 C 22.21875 -6.921875 21.847656 -5.441406 21.109375 -4.140625 C 20.378906 -2.847656 19.367188 -1.832031 18.078125 -1.09375 C 16.785156 -0.363281 15.3125 0 13.65625 0 Z M 12.25 -6.328125 C 12.90625 -6.328125 13.453125 -6.550781 13.890625 -7 C 14.335938 -7.445312 14.5625 -7.992188 14.5625 -8.640625 L 14.5625 -19.359375 C 14.5625 -20.003906 14.335938 -20.550781 13.890625 -21 C 13.453125 -21.445312 12.90625 -21.671875 12.25 -21.671875 C 11.625 -21.671875 11.085938 -21.445312 10.640625 -21 C 10.191406 -20.550781 9.96875 -20.003906 9.96875 -19.359375 L 9.96875 -8.640625 C 9.96875 -7.992188 10.191406 -7.445312 10.640625 -7 C 11.085938 -6.550781 11.625 -6.328125 12.25 -6.328125 Z M 12.25 -6.328125 "/></g></g></g><g fill="#4169e1" fill-opacity="0.4"><g transform="translate(201.336985, 284.98466)"><g><path d="M 4.65625 0 C 4 0 3.441406 -0.222656 2.984375 -0.671875 C 2.535156 -1.128906 2.3125 -1.6875 2.3125 -2.34375 L 2.3125 -25.65625 C 2.3125 -26.332031 2.535156 -26.890625 2.984375 -27.328125 C 3.441406 -27.773438 4 -28 4.65625 -28 L 19.25 -28 C 20.832031 -28 22.242188 -27.640625 23.484375 -26.921875 C 24.722656 -26.210938 25.695312 -25.238281 26.40625 -24 C 27.113281 -22.769531 27.46875 -21.363281 27.46875 -19.78125 L 27.46875 -19.1875 C 27.46875 -17.59375 27.113281 -16.175781 26.40625 -14.9375 C 25.695312 -13.707031 24.722656 -12.734375 23.484375 -12.015625 C 22.242188 -11.304688 20.832031 -10.953125 19.25 -10.953125 L 12.28125 -10.953125 C 11.65625 -10.953125 11.113281 -10.722656 10.65625 -10.265625 C 10.195312 -9.816406 9.96875 -9.273438 9.96875 -8.640625 L 9.96875 -2.34375 C 9.96875 -1.6875 9.742188 -1.128906 9.296875 -0.671875 C 8.859375 -0.222656 8.300781 0 7.625 0 Z M 12.25 -17.078125 L 17.5 -17.078125 C 18.15625 -17.078125 18.703125 -17.296875 19.140625 -17.734375 C 19.585938 -18.179688 19.8125 -18.722656 19.8125 -19.359375 C 19.8125 -20.003906 19.585938 -20.550781 19.140625 -21 C 18.703125 -21.445312 18.15625 -21.671875 17.5 -21.671875 L 12.25 -21.671875 C 11.625 -21.671875 11.085938 -21.445312 10.640625 -21 C 10.191406 -20.550781 9.96875 -20.003906 9.96875 -19.359375 C 9.96875 -18.722656 10.191406 -18.179688 10.640625 -17.734375 C 11.085938 -17.296875 11.625 -17.078125 12.25 -17.078125 Z M 12.25 -17.078125 "/></g></g></g><g fill="#4169e1" fill-opacity="0.4"><g transform="translate(231.115254, 284.98466)"><g><path d="M 10.890625 0 C 9.234375 0 7.753906 -0.363281 6.453125 -1.09375 C 5.160156 -1.832031 4.144531 -2.847656 3.40625 -4.140625 C 2.675781 -5.441406 2.3125 -6.921875 2.3125 -8.578125 L 2.3125 -19.421875 C 2.3125 -21.078125 2.675781 -22.550781 3.40625 -23.84375 C 4.144531 -25.144531 5.160156 -26.160156 6.453125 -26.890625 C 7.753906 -27.628906 9.234375 -28 10.890625 -28 L 13.65625 -28 C 15.3125 -28 16.785156 -27.628906 18.078125 -26.890625 C 19.367188 -26.160156 20.378906 -25.144531 21.109375 -23.84375 C 21.847656 -22.550781 22.21875 -21.078125 22.21875 -19.421875 L 22.21875 -8.578125 C 22.21875 -6.921875 21.847656 -5.441406 21.109375 -4.140625 C 20.378906 -2.847656 19.367188 -1.832031 18.078125 -1.09375 C 16.785156 -0.363281 15.3125 0 13.65625 0 Z M 12.25 -6.328125 C 12.90625 -6.328125 13.453125 -6.550781 13.890625 -7 C 14.335938 -7.445312 14.5625 -7.992188 14.5625 -8.640625 L 14.5625 -19.359375 C 14.5625 -20.003906 14.335938 -20.550781 13.890625 -21 C 13.453125 -21.445312 12.90625 -21.671875 12.25 -21.671875 C 11.625 -21.671875 11.085938 -21.445312 10.640625 -21 C 10.191406 -20.550781 9.96875 -20.003906 9.96875 -19.359375 L 9.96875 -8.640625 C 9.96875 -7.992188 10.191406 -7.445312 10.640625 -7 C 11.085938 -6.550781 11.625 -6.328125 12.25 -6.328125 Z M 12.25 -6.328125 "/></g></g></g><g fill="#4169e1" fill-opacity="0.4"><g transform="translate(255.644713, 284.98466)"><g><path d="M 4.65625 0 C 4 0 3.441406 -0.222656 2.984375 -0.671875 C 2.535156 -1.128906 2.3125 -1.6875 2.3125 -2.34375 L 2.3125 -3.984375 C 2.3125 -4.660156 2.535156 -5.21875 2.984375 -5.65625 C 3.441406 -6.101562 4 -6.328125 4.65625 -6.328125 L 17.5 -6.328125 C 18.15625 -6.328125 18.703125 -6.550781 19.140625 -7 C 19.585938 -7.445312 19.8125 -7.992188 19.8125 -8.640625 C 19.8125 -9.273438 19.585938 -9.816406 19.140625 -10.265625 C 18.703125 -10.722656 18.15625 -10.953125 17.5 -10.953125 L 10.53125 -10.953125 C 8.945312 -10.953125 7.535156 -11.304688 6.296875 -12.015625 C 5.054688 -12.734375 4.082031 -13.707031 3.375 -14.9375 C 2.664062 -16.175781 2.3125 -17.59375 2.3125 -19.1875 L 2.3125 -19.78125 C 2.3125 -21.363281 2.664062 -22.769531 3.375 -24 C 4.082031 -25.238281 5.054688 -26.210938 6.296875 -26.921875 C 7.535156 -27.640625 8.945312 -28 10.53125 -28 L 25.125 -28 C 25.800781 -28 26.359375 -27.773438 26.796875 -27.328125 C 27.242188 -26.890625 27.46875 -26.332031 27.46875 -25.65625 L 27.46875 -24.015625 C 27.46875 -23.359375 27.242188 -22.800781 26.796875 -22.34375 C 26.359375 -21.894531 25.800781 -21.671875 25.125 -21.671875 L 12.25 -21.671875 C 11.625 -21.671875 11.085938 -21.445312 10.640625 -21 C 10.191406 -20.550781 9.96875 -20.003906 9.96875 -19.359375 C 9.96875 -18.722656 10.191406 -18.179688 10.640625 -17.734375 C 11.085938 -17.296875 11.625 -17.078125 12.25 -17.078125 L 19.25 -17.078125 C 20.832031 -17.078125 22.242188 -16.71875 23.484375 -16 C 24.722656 -15.289062 25.695312 -14.316406 26.40625 -13.078125 C 27.113281 -11.847656 27.46875 -10.441406 27.46875 -8.859375 L 27.46875 -8.21875 C 27.46875 -6.632812 27.113281 -5.222656 26.40625 -3.984375 C 25.695312 -2.753906 24.722656 -1.78125 23.484375 -1.0625 C 22.242188 -0.351562 20.832031 0 19.25 0 Z M 4.65625 0 "/></g></g></g><g fill="#333333" fill-opacity="1"><g transform="translate(91.104753, 283.437872)"><g><path d="M 4.6875 0 C 4.007812 0 3.441406 -0.222656 2.984375 -0.671875 C 2.535156 -1.128906 2.3125 -1.6875 2.3125 -2.34375 L 2.3125 -12.984375 C 2.3125 -13.585938 2.5 -14.09375 2.875 -14.5 C 3.25 -14.914062 3.726562 -15.171875 4.3125 -15.265625 L 17.53125 -17.078125 C 18.164062 -17.171875 18.703125 -17.414062 19.140625 -17.8125 C 19.585938 -18.207031 19.8125 -18.722656 19.8125 -19.359375 C 19.8125 -20.003906 19.585938 -20.550781 19.140625 -21 C 18.703125 -21.445312 18.164062 -21.671875 17.53125 -21.671875 L 4.6875 -21.671875 C 4.007812 -21.671875 3.441406 -21.894531 2.984375 -22.34375 C 2.535156 -22.800781 2.3125 -23.359375 2.3125 -24.015625 L 2.3125 -25.65625 C 2.3125 -26.332031 2.535156 -26.890625 2.984375 -27.328125 C 3.441406 -27.773438 4.007812 -28 4.6875 -28 L 25.09375 -28 C 25.769531 -28 26.332031 -27.769531 26.78125 -27.3125 C 27.238281 -26.863281 27.46875 -26.300781 27.46875 -25.625 L 27.46875 -15.046875 C 27.46875 -14.460938 27.28125 -13.960938 26.90625 -13.546875 C 26.539062 -13.128906 26.066406 -12.875 25.484375 -12.78125 L 12.28125 -10.953125 C 11.632812 -10.859375 11.085938 -10.609375 10.640625 -10.203125 C 10.191406 -9.796875 9.96875 -9.273438 9.96875 -8.640625 C 9.96875 -7.992188 10.191406 -7.445312 10.640625 -7 C 11.085938 -6.550781 11.632812 -6.328125 12.28125 -6.328125 L 25.125 -6.328125 C 25.800781 -6.328125 26.359375 -6.101562 26.796875 -5.65625 C 27.242188 -5.21875 27.46875 -4.660156 27.46875 -3.984375 L 27.46875 -2.34375 C 27.46875 -1.6875 27.242188 -1.128906 26.796875 -0.671875 C 26.359375 -0.222656 25.800781 0 25.125 0 Z M 4.6875 0 "/></g></g></g><g fill="#333333" fill-opacity="1"><g transform="translate(120.883022, 283.437872)"><g><path d="M 10.8125 0 C 10.15625 0 9.597656 -0.222656 9.140625 -0.671875 C 8.691406 -1.128906 8.46875 -1.6875 8.46875 -2.34375 L 8.46875 -10.328125 C 8.46875 -10.953125 8.242188 -11.492188 7.796875 -11.953125 C 7.359375 -12.410156 6.8125 -12.640625 6.15625 -12.640625 L 4.65625 -12.640625 C 4 -12.640625 3.441406 -12.863281 2.984375 -13.3125 C 2.535156 -13.769531 2.3125 -14.335938 2.3125 -15.015625 L 2.3125 -25.71875 C 2.3125 -26.375 2.535156 -26.914062 2.984375 -27.34375 C 3.441406 -27.78125 4 -28 4.65625 -28 L 7.625 -28 C 8.28125 -28 8.832031 -27.769531 9.28125 -27.3125 C 9.738281 -26.863281 9.96875 -26.300781 9.96875 -25.625 L 9.96875 -19.421875 C 9.96875 -18.765625 10.195312 -18.207031 10.65625 -17.75 C 11.113281 -17.300781 11.65625 -17.078125 12.28125 -17.078125 C 12.9375 -17.078125 13.488281 -17.300781 13.9375 -17.75 C 14.394531 -18.207031 14.625 -18.765625 14.625 -19.421875 L 14.625 -25.625 C 14.625 -26.300781 14.851562 -26.863281 15.3125 -27.3125 C 15.769531 -27.769531 16.320312 -28 16.96875 -28 L 19.953125 -28 C 20.578125 -28 21.125 -27.78125 21.59375 -27.34375 C 22.0625 -26.914062 22.296875 -26.375 22.296875 -25.71875 L 22.296875 -15.015625 C 22.296875 -14.335938 22.070312 -13.769531 21.625 -13.3125 C 21.1875 -12.863281 20.628906 -12.640625 19.953125 -12.640625 L 18.40625 -12.640625 C 17.78125 -12.640625 17.242188 -12.414062 16.796875 -11.96875 C 16.359375 -11.53125 16.140625 -10.984375 16.140625 -10.328125 L 16.140625 -2.34375 C 16.140625 -1.6875 15.914062 -1.128906 15.46875 -0.671875 C 15.03125 -0.222656 14.472656 0 13.796875 0 Z M 10.8125 0 "/></g></g></g><g fill="#333333" fill-opacity="1"><g transform="translate(145.482462, 283.437872)"><g><path d="M 4.65625 0 C 4 0 3.441406 -0.222656 2.984375 -0.671875 C 2.535156 -1.128906 2.3125 -1.6875 2.3125 -2.34375 L 2.3125 -25.65625 C 2.3125 -26.332031 2.535156 -26.890625 2.984375 -27.328125 C 3.441406 -27.773438 4 -28 4.65625 -28 L 20.328125 -28 C 21.710938 -28 22.941406 -27.6875 24.015625 -27.0625 C 25.085938 -26.445312 25.929688 -25.601562 26.546875 -24.53125 C 27.160156 -23.457031 27.46875 -22.234375 27.46875 -20.859375 L 27.46875 -18.71875 C 27.46875 -18.019531 27.238281 -17.441406 26.78125 -16.984375 C 26.332031 -16.535156 25.757812 -16.3125 25.0625 -16.3125 L 24.984375 -16.3125 C 24.359375 -16.3125 23.820312 -16.085938 23.375 -15.640625 C 22.9375 -15.203125 22.71875 -14.65625 22.71875 -14 C 22.71875 -13.34375 22.9375 -12.789062 23.375 -12.34375 C 23.820312 -11.90625 24.359375 -11.6875 24.984375 -11.6875 L 25.3125 -11.6875 C 25.9375 -11.6875 26.453125 -11.488281 26.859375 -11.09375 C 27.265625 -10.695312 27.46875 -10.1875 27.46875 -9.5625 L 27.46875 -2.34375 C 27.46875 -1.6875 27.242188 -1.128906 26.796875 -0.671875 C 26.359375 -0.222656 25.800781 0 25.125 0 L 22.15625 0 C 21.5 0 20.941406 -0.222656 20.484375 -0.671875 C 20.035156 -1.128906 19.8125 -1.6875 19.8125 -2.34375 L 19.8125 -8.6875 C 19.8125 -9.3125 19.585938 -9.84375 19.140625 -10.28125 C 18.703125 -10.726562 18.15625 -10.953125 17.5 -10.953125 L 12.25 -10.953125 C 11.625 -10.953125 11.085938 -10.726562 10.640625 -10.28125 C 10.191406 -9.84375 9.96875 -9.3125 9.96875 -8.6875 L 9.96875 -2.34375 C 9.96875 -1.6875 9.742188 -1.128906 9.296875 -0.671875 C 8.859375 -0.222656 8.300781 0 7.625 0 Z M 12.25 -17.078125 L 17.5 -17.078125 C 18.15625 -17.078125 18.703125 -17.296875 19.140625 -17.734375 C 19.585938 -18.179688 19.8125 -18.722656 19.8125 -19.359375 C 19.8125 -20.003906 19.585938 -20.550781 19.140625 -21 C 18.703125 -21.445312 18.15625 -21.671875 17.5 -21.671875 L 12.25 -21.671875 C 11.625 -21.671875 11.085938 -21.445312 10.640625 -21 C 10.191406 -20.550781 9.96875 -20.003906 9.96875 -19.359375 C 9.96875 -18.722656 10.191406 -18.179688 10.640625 -17.734375 C 11.085938 -17.296875 11.625 -17.078125 12.25 -17.078125 Z M 12.25 -17.078125 "/></g></g></g><g fill="#333333" fill-opacity="1"><g transform="translate(175.260731, 283.437872)"><g><path d="M 10.890625 0 C 9.234375 0 7.753906 -0.363281 6.453125 -1.09375 C 5.160156 -1.832031 4.144531 -2.847656 3.40625 -4.140625 C 2.675781 -5.441406 2.3125 -6.921875 2.3125 -8.578125 L 2.3125 -19.421875 C 2.3125 -21.078125 2.675781 -22.550781 3.40625 -23.84375 C 4.144531 -25.144531 5.160156 -26.160156 6.453125 -26.890625 C 7.753906 -27.628906 9.234375 -28 10.890625 -28 L 13.65625 -28 C 15.3125 -28 16.785156 -27.628906 18.078125 -26.890625 C 19.367188 -26.160156 20.378906 -25.144531 21.109375 -23.84375 C 21.847656 -22.550781 22.21875 -21.078125 22.21875 -19.421875 L 22.21875 -8.578125 C 22.21875 -6.921875 21.847656 -5.441406 21.109375 -4.140625 C 20.378906 -2.847656 19.367188 -1.832031 18.078125 -1.09375 C 16.785156 -0.363281 15.3125 0 13.65625 0 Z M 12.25 -6.328125 C 12.90625 -6.328125 13.453125 -6.550781 13.890625 -7 C 14.335938 -7.445312 14.5625 -7.992188 14.5625 -8.640625 L 14.5625 -19.359375 C 14.5625 -20.003906 14.335938 -20.550781 13.890625 -21 C 13.453125 -21.445312 12.90625 -21.671875 12.25 -21.671875 C 11.625 -21.671875 11.085938 -21.445312 10.640625 -21 C 10.191406 -20.550781 9.96875 -20.003906 9.96875 -19.359375 L 9.96875 -8.640625 C 9.96875 -7.992188 10.191406 -7.445312 10.640625 -7 C 11.085938 -6.550781 11.625 -6.328125 12.25 -6.328125 Z M 12.25 -6.328125 "/></g></g></g><g fill="#333333" fill-opacity="1"><g transform="translate(199.79019, 283.437872)"><g><path d="M 4.65625 0 C 4 0 3.441406 -0.222656 2.984375 -0.671875 C 2.535156 -1.128906 2.3125 -1.6875 2.3125 -2.34375 L 2.3125 -25.65625 C 2.3125 -26.332031 2.535156 -26.890625 2.984375 -27.328125 C 3.441406 -27.773438 4 -28 4.65625 -28 L 19.25 -28 C 20.832031 -28 22.242188 -27.640625 23.484375 -26.921875 C 24.722656 -26.210938 25.695312 -25.238281 26.40625 -24 C 27.113281 -22.769531 27.46875 -21.363281 27.46875 -19.78125 L 27.46875 -19.1875 C 27.46875 -17.59375 27.113281 -16.175781 26.40625 -14.9375 C 25.695312 -13.707031 24.722656 -12.734375 23.484375 -12.015625 C 22.242188 -11.304688 20.832031 -10.953125 19.25 -10.953125 L 12.28125 -10.953125 C 11.65625 -10.953125 11.113281 -10.722656 10.65625 -10.265625 C 10.195312 -9.816406 9.96875 -9.273438 9.96875 -8.640625 L 9.96875 -2.34375 C 9.96875 -1.6875 9.742188 -1.128906 9.296875 -0.671875 C 8.859375 -0.222656 8.300781 0 7.625 0 Z M 12.25 -17.078125 L 17.5 -17.078125 C 18.15625 -17.078125 18.703125 -17.296875 19.140625 -17.734375 C 19.585938 -18.179688 19.8125 -18.722656 19.8125 -19.359375 C 19.8125 -20.003906 19.585938 -20.550781 19.140625 -21 C 18.703125 -21.445312 18.15625 -21.671875 17.5 -21.671875 L 12.25 -21.671875 C 11.625 -21.671875 11.085938 -21.445312 10.640625 -21 C 10.191406 -20.550781 9.96875 -20.003906 9.96875 -19.359375 C 9.96875 -18.722656 10.191406 -18.179688 10.640625 -17.734375 C 11.085938 -17.296875 11.625 -17.078125 12.25 -17.078125 Z M 12.25 -17.078125 "/></g></g></g><g fill="#333333" fill-opacity="1"><g transform="translate(229.568459, 283.437872)"><g><path d="M 10.890625 0 C 9.234375 0 7.753906 -0.363281 6.453125 -1.09375 C 5.160156 -1.832031 4.144531 -2.847656 3.40625 -4.140625 C 2.675781 -5.441406 2.3125 -6.921875 2.3125 -8.578125 L 2.3125 -19.421875 C 2.3125 -21.078125 2.675781 -22.550781 3.40625 -23.84375 C 4.144531 -25.144531 5.160156 -26.160156 6.453125 -26.890625 C 7.753906 -27.628906 9.234375 -28 10.890625 -28 L 13.65625 -28 C 15.3125 -28 16.785156 -27.628906 18.078125 -26.890625 C 19.367188 -26.160156 20.378906 -25.144531 21.109375 -23.84375 C 21.847656 -22.550781 22.21875 -21.078125 22.21875 -19.421875 L 22.21875 -8.578125 C 22.21875 -6.921875 21.847656 -5.441406 21.109375 -4.140625 C 20.378906 -2.847656 19.367188 -1.832031 18.078125 -1.09375 C 16.785156 -0.363281 15.3125 0 13.65625 0 Z M 12.25 -6.328125 C 12.90625 -6.328125 13.453125 -6.550781 13.890625 -7 C 14.335938 -7.445312 14.5625 -7.992188 14.5625 -8.640625 L 14.5625 -19.359375 C 14.5625 -20.003906 14.335938 -20.550781 13.890625 -21 C 13.453125 -21.445312 12.90625 -21.671875 12.25 -21.671875 C 11.625 -21.671875 11.085938 -21.445312 10.640625 -21 C 10.191406 -20.550781 9.96875 -20.003906 9.96875 -19.359375 L 9.96875 -8.640625 C 9.96875 -7.992188 10.191406 -7.445312 10.640625 -7 C 11.085938 -6.550781 11.625 -6.328125 12.25 -6.328125 Z M 12.25 -6.328125 "/></g></g></g><g fill="#333333" fill-opacity="1"><g transform="translate(254.097918, 283.437872)"><g><path d="M 4.65625 0 C 4 0 3.441406 -0.222656 2.984375 -0.671875 C 2.535156 -1.128906 2.3125 -1.6875 2.3125 -2.34375 L 2.3125 -3.984375 C 2.3125 -4.660156 2.535156 -5.21875 2.984375 -5.65625 C 3.441406 -6.101562 4 -6.328125 4.65625 -6.328125 L 17.5 -6.328125 C 18.15625 -6.328125 18.703125 -6.550781 19.140625 -7 C 19.585938 -7.445312 19.8125 -7.992188 19.8125 -8.640625 C 19.8125 -9.273438 19.585938 -9.816406 19.140625 -10.265625 C 18.703125 -10.722656 18.15625 -10.953125 17.5 -10.953125 L 10.53125 -10.953125 C 8.945312 -10.953125 7.535156 -11.304688 6.296875 -12.015625 C 5.054688 -12.734375 4.082031 -13.707031 3.375 -14.9375 C 2.664062 -16.175781 2.3125 -17.59375 2.3125 -19.1875 L 2.3125 -19.78125 C 2.3125 -21.363281 2.664062 -22.769531 3.375 -24 C 4.082031 -25.238281 5.054688 -26.210938 6.296875 -26.921875 C 7.535156 -27.640625 8.945312 -28 10.53125 -28 L 25.125 -28 C 25.800781 -28 26.359375 -27.773438 26.796875 -27.328125 C 27.242188 -26.890625 27.46875 -26.332031 27.46875 -25.65625 L 27.46875 -24.015625 C 27.46875 -23.359375 27.242188 -22.800781 26.796875 -22.34375 C 26.359375 -21.894531 25.800781 -21.671875 25.125 -21.671875 L 12.25 -21.671875 C 11.625 -21.671875 11.085938 -21.445312 10.640625 -21 C 10.191406 -20.550781 9.96875 -20.003906 9.96875 -19.359375 C 9.96875 -18.722656 10.191406 -18.179688 10.640625 -17.734375 C 11.085938 -17.296875 11.625 -17.078125 12.25 -17.078125 L 19.25 -17.078125 C 20.832031 -17.078125 22.242188 -16.71875 23.484375 -16 C 24.722656 -15.289062 25.695312 -14.316406 26.40625 -13.078125 C 27.113281 -11.847656 27.46875 -10.441406 27.46875 -8.859375 L 27.46875 -8.21875 C 27.46875 -6.632812 27.113281 -5.222656 26.40625 -3.984375 C 25.695312 -2.753906 24.722656 -1.78125 23.484375 -1.0625 C 22.242188 -0.351562 20.832031 0 19.25 0 Z M 4.65625 0 "/></g></g></g><g fill="#333333" fill-opacity="1"><g transform="translate(130.291036, 309.437879)"><g><path d="M 1.65625 0 L 1.65625 -13.96875 L 7.328125 -13.96875 C 10.179688 -13.96875 11.609375 -12.71875 11.609375 -10.21875 C 11.609375 -7.507812 9.65625 -5.851562 5.75 -5.25 L 5.375 -6.78125 C 8.238281 -7.195312 9.671875 -8.316406 9.671875 -10.140625 C 9.671875 -11.691406 8.832031 -12.46875 7.15625 -12.46875 L 3.46875 -12.46875 L 3.46875 0 Z M 1.65625 0 "/></g></g></g><g fill="#333333" fill-opacity="1"><g transform="translate(142.620202, 309.437879)"><g><path d="M 3.078125 -7.015625 C 3.078125 -3.253906 4.78125 -1.375 8.1875 -1.375 C 11.519531 -1.375 13.1875 -3.253906 13.1875 -7.015625 C 13.1875 -10.734375 11.519531 -12.59375 8.1875 -12.59375 C 4.78125 -12.59375 3.078125 -10.734375 3.078125 -7.015625 Z M 1.171875 -6.96875 C 1.171875 -11.695312 3.507812 -14.0625 8.1875 -14.0625 C 12.789062 -14.0625 15.09375 -11.695312 15.09375 -6.96875 C 15.09375 -2.257812 12.789062 0.09375 8.1875 0.09375 C 3.507812 0.09375 1.171875 -2.257812 1.171875 -6.96875 Z M 1.171875 -6.96875 "/></g></g></g><g fill="#333333" fill-opacity="1"><g transform="translate(158.873615, 309.437879)"><g><path d="M 1.46875 -0.484375 L 1.46875 -2.15625 C 2.925781 -1.632812 4.507812 -1.375 6.21875 -1.375 C 8.613281 -1.375 9.8125 -2.25 9.8125 -4 C 9.8125 -5.5 8.925781 -6.25 7.15625 -6.25 L 5.359375 -6.25 C 2.441406 -6.25 0.984375 -7.519531 0.984375 -10.0625 C 0.984375 -12.726562 2.851562 -14.0625 6.59375 -14.0625 C 8.21875 -14.0625 9.734375 -13.867188 11.140625 -13.484375 L 11.140625 -11.8125 C 9.734375 -12.332031 8.21875 -12.59375 6.59375 -12.59375 C 4.050781 -12.59375 2.78125 -11.75 2.78125 -10.0625 C 2.78125 -8.5625 3.640625 -7.8125 5.359375 -7.8125 L 7.15625 -7.8125 C 10.132812 -7.8125 11.625 -6.539062 11.625 -4 C 11.625 -1.269531 9.820312 0.09375 6.21875 0.09375 C 4.507812 0.09375 2.925781 -0.0976562 1.46875 -0.484375 Z M 1.46875 -0.484375 "/></g></g></g><g fill="#333333" fill-opacity="1"><g transform="translate(171.46635, 309.437879)"><g/></g></g><g fill="#333333" fill-opacity="1"><g transform="translate(176.347255, 309.437879)"><g><path d="M 1.46875 -0.484375 L 1.46875 -2.15625 C 2.925781 -1.632812 4.507812 -1.375 6.21875 -1.375 C 8.613281 -1.375 9.8125 -2.25 9.8125 -4 C 9.8125 -5.5 8.925781 -6.25 7.15625 -6.25 L 5.359375 -6.25 C 2.441406 -6.25 0.984375 -7.519531 0.984375 -10.0625 C 0.984375 -12.726562 2.851562 -14.0625 6.59375 -14.0625 C 8.21875 -14.0625 9.734375 -13.867188 11.140625 -13.484375 L 11.140625 -11.8125 C 9.734375 -12.332031 8.21875 -12.59375 6.59375 -12.59375 C 4.050781 -12.59375 2.78125 -11.75 2.78125 -10.0625 C 2.78125 -8.5625 3.640625 -7.8125 5.359375 -7.8125 L 7.15625 -7.8125 C 10.132812 -7.8125 11.625 -6.539062 11.625 -4 C 11.625 -1.269531 9.820312 0.09375 6.21875 0.09375 C 4.507812 0.09375 2.925781 -0.0976562 1.46875 -0.484375 Z M 1.46875 -0.484375 "/></g></g></g><g fill="#333333" fill-opacity="1"><g transform="translate(188.939989, 309.437879)"><g><path d="M 0.25 -10.25 L 2.203125 -10.25 L 5.109375 -2.25 L 8.109375 -10.25 L 10.015625 -10.25 L 5.765625 0.296875 C 5.003906 2.160156 3.867188 3.328125 2.359375 3.796875 L 1.671875 2.515625 C 2.816406 2.015625 3.648438 1.195312 4.171875 0.0625 Z M 0.25 -10.25 "/></g></g></g><g fill="#333333" fill-opacity="1"><g transform="translate(199.18989, 309.437879)"><g><path d="M 1.375 -0.484375 L 1.375 -2.046875 C 2.570312 -1.660156 3.785156 -1.46875 5.015625 -1.46875 C 6.648438 -1.46875 7.46875 -1.957031 7.46875 -2.9375 C 7.46875 -3.84375 6.898438 -4.296875 5.765625 -4.296875 L 4.296875 -4.296875 C 2.085938 -4.296875 0.984375 -5.304688 0.984375 -7.328125 C 0.984375 -9.273438 2.40625 -10.25 5.25 -10.25 C 6.46875 -10.25 7.679688 -10.085938 8.890625 -9.765625 L 8.890625 -8.203125 C 7.679688 -8.597656 6.46875 -8.796875 5.25 -8.796875 C 3.539062 -8.796875 2.6875 -8.304688 2.6875 -7.328125 C 2.6875 -6.410156 3.222656 -5.953125 4.296875 -5.953125 L 5.765625 -5.953125 C 8.109375 -5.953125 9.28125 -4.945312 9.28125 -2.9375 C 9.28125 -0.976562 7.859375 0 5.015625 0 C 3.785156 0 2.570312 -0.160156 1.375 -0.484375 Z M 1.375 -0.484375 "/></g></g></g><g fill="#333333" fill-opacity="1"><g transform="translate(209.43979, 309.437879)"><g><path d="M 1.46875 -11.921875 L 2.59375 -11.921875 L 2.984375 -10.25 L 5.765625 -10.25 L 5.765625 -8.796875 L 3.265625 -8.796875 L 3.265625 -2.90625 C 3.265625 -1.945312 3.679688 -1.46875 4.515625 -1.46875 L 5.765625 -1.46875 L 5.765625 0 L 4.046875 0 C 2.328125 0 1.46875 -0.921875 1.46875 -2.765625 Z M 1.46875 -11.921875 "/></g></g></g><g fill="#333333" fill-opacity="1"><g transform="translate(216.029011, 309.437879)"><g><path d="M 5.6875 -10.25 C 8.601562 -10.25 10.0625 -8.804688 10.0625 -5.921875 C 10.0625 -5.515625 10.035156 -5.078125 9.984375 -4.609375 L 2.78125 -4.609375 C 2.78125 -2.515625 4.003906 -1.46875 6.453125 -1.46875 C 7.617188 -1.46875 8.65625 -1.597656 9.5625 -1.859375 L 9.5625 -0.390625 C 8.65625 -0.128906 7.554688 0 6.265625 0 C 2.742188 0 0.984375 -1.75 0.984375 -5.25 C 0.984375 -8.582031 2.550781 -10.25 5.6875 -10.25 Z M 2.78125 -6.109375 L 8.328125 -6.109375 C 8.285156 -7.910156 7.40625 -8.8125 5.6875 -8.8125 C 3.863281 -8.8125 2.894531 -7.910156 2.78125 -6.109375 Z M 2.78125 -6.109375 "/></g></g></g><g fill="#333333" fill-opacity="1"><g transform="translate(227.059856, 309.437879)"><g><path d="M 1.46875 0 L 1.46875 -10.25 L 2.6875 -10.25 L 2.984375 -8.96875 C 3.972656 -9.820312 5.046875 -10.25 6.203125 -10.25 C 7.679688 -10.25 8.691406 -9.78125 9.234375 -8.84375 C 10.347656 -9.78125 11.476562 -10.25 12.625 -10.25 C 14.976562 -10.25 16.15625 -8.953125 16.15625 -6.359375 L 16.15625 0 L 14.359375 0 L 14.359375 -6.453125 C 14.359375 -7.984375 13.710938 -8.75 12.421875 -8.75 C 11.460938 -8.75 10.5625 -8.304688 9.71875 -7.421875 L 9.71875 0 L 7.90625 0 L 7.90625 -6.421875 C 7.90625 -7.972656 7.269531 -8.75 6 -8.75 C 4.976562 -8.75 4.066406 -8.304688 3.265625 -7.421875 L 3.265625 0 Z M 1.46875 0 "/></g></g></g></svg>