<svg xmlns="http://www.w3.org/2000/svg" xmlns:xlink="http://www.w3.org/1999/xlink" width="500" zoomAndPan="magnify" viewBox="0 0 375 374.999991" height="500" preserveAspectRatio="xMidYMid meet" version="1.0"><defs><clipPath id="447c637b83"><path d="M 104.402344 112.761719 L 270.902344 112.761719 L 270.902344 279 L 104.402344 279 Z M 104.402344 112.761719 " clip-rule="nonzero"/></clipPath><clipPath id="82032ae5d3"><path d="M 164.117188 98.632812 L 213.253906 98.632812 L 213.253906 111.382812 L 164.117188 111.382812 Z M 164.117188 98.632812 " clip-rule="nonzero"/></clipPath><clipPath id="990a09b9a4"><path d="M 176.019531 120.449219 L 201.238281 120.449219 L 201.238281 129.441406 L 176.019531 129.441406 Z M 176.019531 120.449219 " clip-rule="nonzero"/></clipPath><clipPath id="7d5e0c9bf1"><path d="M 161.738281 96.039062 L 213 96.039062 L 213 110 L 161.738281 110 Z M 161.738281 96.039062 " clip-rule="nonzero"/></clipPath><clipPath id="f5b8052942"><path d="M 221.546875 237 L 240 237 L 240 266.816406 L 221.546875 266.816406 Z M 221.546875 237 " clip-rule="nonzero"/></clipPath><clipPath id="3c7cc3b835"><path d="M 230 220.316406 L 243.296875 220.316406 L 243.296875 251 L 230 251 Z M 230 220.316406 " clip-rule="nonzero"/></clipPath></defs><rect x="-37.5" width="450" fill="#ffffff" y="-37.499999" height="449.999989" fill-opacity="1"/><rect x="-37.5" width="450" fill="#fbfcfa" y="-37.499999" height="449.999989" fill-opacity="1"/><g clip-path="url(#447c637b83)"><path fill="#00ced1" d="M 270.558594 195.828125 C 270.558594 241.71875 233.359375 278.921875 187.46875 278.921875 C 141.574219 278.921875 104.375 241.71875 104.375 195.828125 C 104.375 149.9375 141.574219 112.738281 187.46875 112.738281 C 233.359375 112.734375 270.558594 149.9375 270.558594 195.828125 " fill-opacity="1" fill-rule="nonzero"/></g><path fill="#fbfcfa" d="M 201.761719 252.390625 L 173.171875 252.390625 L 173.171875 237.410156 L 201.761719 237.410156 L 201.761719 252.390625 " fill-opacity="1" fill-rule="nonzero"/><path stroke-linecap="round" transform="matrix(0.0621756, 0, 0, -0.0621756, 55.282474, 328.014178)" fill="none" stroke-linejoin="round" d="M 2355.896924 1216.290376 L 1896.072563 1216.290376 L 1896.072563 1457.22854 L 2355.896924 1457.22854 Z M 2355.896924 1216.290376 " stroke="#040505" stroke-width="50" stroke-opacity="1" stroke-miterlimit="10"/><path fill="#fbfcfa" d="M 244.339844 237.410156 L 130.597656 237.410156 L 130.597656 170.121094 L 244.339844 170.121094 L 244.339844 237.410156 " fill-opacity="1" fill-rule="nonzero"/><path stroke-linecap="round" transform="matrix(0.0621756, 0, 0, -0.0621756, 55.282474, 328.014178)" fill="none" stroke-linejoin="round" d="M 3040.701616 1457.22854 L 1211.330697 1457.22854 L 1211.330697 2539.471258 L 3040.701616 2539.471258 Z M 3040.701616 1457.22854 " stroke="#040505" stroke-width="50" stroke-opacity="1" stroke-miterlimit="10"/><path fill="#00ced1" d="M 235.816406 230.492188 L 139.125 230.492188 L 139.125 177.035156 L 235.816406 177.035156 L 235.816406 230.492188 " fill-opacity="1" fill-rule="nonzero"/><path stroke-linecap="round" transform="matrix(0.0621756, 0, 0, -0.0621756, 55.282474, 328.014178)" fill="none" stroke-linejoin="round" d="M 2903.615025 1568.493596 L 1348.480114 1568.493596 L 1348.480114 2428.269028 L 2903.615025 2428.269028 Z M 2903.615025 1568.493596 " stroke="#040505" stroke-width="30" stroke-opacity="1" stroke-miterlimit="10"/><path fill="#fbfcfa" d="M 211.0625 257.949219 L 163.867188 257.949219 L 163.867188 252.390625 L 211.0625 252.390625 L 211.0625 257.949219 " fill-opacity="1" fill-rule="nonzero"/><path stroke-linecap="round" transform="matrix(0.0621756, 0, 0, -0.0621756, 55.282474, 328.014178)" fill="none" stroke-linejoin="round" d="M 2505.485912 1126.888809 L 1746.420748 1126.888809 L 1746.420748 1216.290376 L 2505.485912 1216.290376 Z M 2505.485912 1126.888809 " stroke="#040505" stroke-width="50" stroke-opacity="1" stroke-miterlimit="10"/><path stroke-linecap="round" transform="matrix(0.0621756, 0, 0, -0.0621756, 55.282474, 328.014178)" fill="none" stroke-linejoin="round" d="M 2211.89946 2726.127656 L 2211.89946 2856.303373 L 2398.869989 2856.303373 L 2398.869989 3138.392645 " stroke="#040505" stroke-width="30" stroke-opacity="1" stroke-miterlimit="10"/><path stroke-linecap="round" transform="matrix(0.0621756, 0, 0, -0.0621756, 55.282474, 328.014178)" fill="none" stroke-linejoin="round" d="M 2164.402915 1916.990076 L 2164.402915 2047.228619 L 2259.270354 2047.228619 L 2259.270354 2309.087881 " stroke="#040505" stroke-width="30" stroke-opacity="1" stroke-miterlimit="10"/><path stroke-linecap="round" transform="matrix(0.0621756, 0, 0, -0.0621756, 55.282474, 328.014178)" fill="none" stroke-linejoin="round" d="M 2118.414196 2726.127656 L 2118.414196 2969.704517 L 2211.89946 2969.704517 L 2211.89946 3073.995874 " stroke="#040505" stroke-width="30" stroke-opacity="1" stroke-miterlimit="10"/><path stroke-linecap="round" transform="matrix(0.0621756, 0, 0, -0.0621756, 55.282474, 328.014178)" fill="none" stroke-linejoin="round" d="M 2342.075178 2676.997631 L 2529.108533 2676.997631 L 2529.108533 2896.072306 " stroke="#040505" stroke-width="30" stroke-opacity="1" stroke-miterlimit="10"/><path stroke-linecap="round" transform="matrix(0.0621756, 0, 0, -0.0621756, 55.282474, 328.014178)" fill="none" stroke-linejoin="round" d="M 2561.401158 2157.488457 L 2561.401158 2344.521812 L 2342.075178 2344.521812 " stroke="#040505" stroke-width="30" stroke-opacity="1" stroke-miterlimit="10"/><path stroke-linecap="round" transform="matrix(0.0621756, 0, 0, -0.0621756, 55.282474, 328.014178)" fill="none" stroke-linejoin="round" d="M 2040.195679 2726.127656 L 2040.195679 2856.303373 L 1853.099498 2856.303373 L 1853.099498 3138.392645 " stroke="#040505" stroke-width="30" stroke-opacity="1" stroke-miterlimit="10"/><path stroke-linecap="round" transform="matrix(0.0621756, 0, 0, -0.0621756, 55.282474, 328.014178)" fill="none" stroke-linejoin="round" d="M 2066.205692 2050.998186 L 2066.205692 2153.71889 L 2010.981533 2153.71889 L 2010.981533 2309.087881 " stroke="#040505" stroke-width="30" stroke-opacity="1" stroke-miterlimit="10"/><path stroke-linecap="round" transform="matrix(0.0621756, 0, 0, -0.0621756, 55.282474, 328.014178)" fill="none" stroke-linejoin="round" d="M 1909.894309 2676.997631 L 1722.92378 2676.997631 L 1722.92378 2896.072306 " stroke="#040505" stroke-width="30" stroke-opacity="1" stroke-miterlimit="10"/><path stroke-linecap="round" transform="matrix(0.0621756, 0, 0, -0.0621756, 55.282474, 328.014178)" fill="none" stroke-linejoin="round" d="M 1690.693981 2157.488457 L 1690.693981 2344.521812 L 1909.894309 2344.521812 " stroke="#040505" stroke-width="30" stroke-opacity="1" stroke-miterlimit="10"/><path fill="#fbfcfa" d="M 174.984375 185.378906 C 174.46875 185.378906 174.050781 184.953125 174.050781 184.445312 L 174.050781 158.515625 C 174.050781 158 174.46875 157.585938 174.984375 157.585938 L 200.902344 157.585938 C 201.421875 157.585938 201.835938 158 201.835938 158.515625 L 201.835938 184.445312 C 201.835938 184.953125 201.421875 185.378906 200.902344 185.378906 L 174.984375 185.378906 " fill-opacity="1" fill-rule="nonzero"/><path fill="#01225a" d="M 200.902344 156.652344 L 174.984375 156.652344 C 173.949219 156.652344 173.117188 157.484375 173.117188 158.515625 L 173.117188 184.445312 C 173.117188 185.46875 173.949219 186.308594 174.984375 186.308594 L 200.902344 186.308594 C 201.9375 186.308594 202.769531 185.46875 202.769531 184.445312 L 202.769531 158.515625 C 202.769531 157.484375 201.9375 156.652344 200.902344 156.652344 Z M 200.902344 158.515625 L 200.902344 184.445312 L 174.984375 184.445312 L 174.984375 158.515625 L 200.902344 158.515625 " fill-opacity="1" fill-rule="nonzero"/><path fill="#fbfcfa" d="M 173.90625 136.289062 C 173.90625 138.171875 172.382812 139.695312 170.5 139.695312 C 168.621094 139.695312 167.09375 138.171875 167.09375 136.289062 C 167.09375 134.410156 168.621094 132.882812 170.5 132.882812 C 172.382812 132.882812 173.90625 134.410156 173.90625 136.289062 " fill-opacity="1" fill-rule="nonzero"/><path stroke-linecap="round" transform="matrix(0.0621756, 0, 0, -0.0621756, 55.282474, 328.014178)" fill="none" stroke-linejoin="round" d="M 1907.883873 3083.60827 C 1907.883873 3053.326081 1883.381687 3028.823895 1853.099498 3028.823895 C 1822.880135 3028.823895 1798.315122 3053.326081 1798.315122 3083.60827 C 1798.315122 3113.827633 1822.880135 3138.392645 1853.099498 3138.392645 C 1883.381687 3138.392645 1907.883873 3113.827633 1907.883873 3083.60827 Z M 1907.883873 3083.60827 " stroke="#040505" stroke-width="30" stroke-opacity="1" stroke-miterlimit="10"/><path fill="#fbfcfa" d="M 196.214844 136.289062 C 196.214844 138.171875 194.6875 139.695312 192.808594 139.695312 C 190.925781 139.695312 189.402344 138.171875 189.402344 136.289062 C 189.402344 134.410156 190.925781 132.882812 192.808594 132.882812 C 194.6875 132.882812 196.214844 134.410156 196.214844 136.289062 " fill-opacity="1" fill-rule="nonzero"/><path stroke-linecap="round" transform="matrix(0.0621756, 0, 0, -0.0621756, 55.282474, 328.014178)" fill="none" stroke-linejoin="round" d="M 2266.683836 3083.60827 C 2266.683836 3053.326081 2242.118823 3028.823895 2211.89946 3028.823895 C 2181.617271 3028.823895 2157.115085 3053.326081 2157.115085 3083.60827 C 2157.115085 3113.827633 2181.617271 3138.392645 2211.89946 3138.392645 C 2242.118823 3138.392645 2266.683836 3113.827633 2266.683836 3083.60827 Z M 2266.683836 3083.60827 " stroke="#040505" stroke-width="30" stroke-opacity="1" stroke-miterlimit="10"/><path fill="#fbfcfa" d="M 207.84375 133.480469 C 207.84375 135.363281 206.3125 136.886719 204.433594 136.886719 C 202.550781 136.886719 201.027344 135.363281 201.027344 133.480469 C 201.027344 131.59375 202.550781 130.070312 204.433594 130.070312 C 206.3125 130.070312 207.84375 131.59375 207.84375 133.480469 " fill-opacity="1" fill-rule="nonzero"/><path stroke-linecap="round" transform="matrix(0.0621756, 0, 0, -0.0621756, 55.282474, 328.014178)" fill="none" stroke-linejoin="round" d="M 2453.71719 3128.780249 C 2453.71719 3098.49806 2429.089352 3073.995874 2398.869989 3073.995874 C 2368.5878 3073.995874 2344.085614 3098.49806 2344.085614 3128.780249 C 2344.085614 3159.125265 2368.5878 3183.627451 2398.869989 3183.627451 C 2429.089352 3183.627451 2453.71719 3159.125265 2453.71719 3128.780249 Z M 2453.71719 3128.780249 " stroke="#040505" stroke-width="30" stroke-opacity="1" stroke-miterlimit="10"/><path fill="#fbfcfa" d="M 215.9375 149.621094 C 215.9375 151.496094 214.414062 153.027344 212.53125 153.027344 C 210.652344 153.027344 209.125 151.496094 209.125 149.621094 C 209.125 147.734375 210.652344 146.210938 212.53125 146.210938 C 214.414062 146.210938 215.9375 147.734375 215.9375 149.621094 " fill-opacity="1" fill-rule="nonzero"/><path stroke-linecap="round" transform="matrix(0.0621756, 0, 0, -0.0621756, 55.282474, 328.014178)" fill="none" stroke-linejoin="round" d="M 2583.892908 2869.182728 C 2583.892908 2839.026191 2559.390722 2814.398352 2529.108533 2814.398352 C 2498.88917 2814.398352 2474.324157 2839.026191 2474.324157 2869.182728 C 2474.324157 2899.527743 2498.88917 2924.029929 2529.108533 2924.029929 C 2559.390722 2924.029929 2583.892908 2899.527743 2583.892908 2869.182728 Z M 2583.892908 2869.182728 " stroke="#040505" stroke-width="30" stroke-opacity="1" stroke-miterlimit="10"/><path fill="#fbfcfa" d="M 217.945312 192.824219 C 217.945312 194.710938 216.417969 196.238281 214.539062 196.238281 C 212.65625 196.238281 211.132812 194.710938 211.132812 192.824219 C 211.132812 190.949219 212.65625 189.417969 214.539062 189.417969 C 216.417969 189.417969 217.945312 190.949219 217.945312 192.824219 " fill-opacity="1" fill-rule="nonzero"/><path stroke-linecap="round" transform="matrix(0.0621756, 0, 0, -0.0621756, 55.282474, 328.014178)" fill="none" stroke-linejoin="round" d="M 2616.185533 2174.325857 C 2616.185533 2143.980842 2591.620521 2119.415829 2561.401158 2119.415829 C 2531.118968 2119.415829 2506.616782 2143.980842 2506.616782 2174.325857 C 2506.616782 2204.482394 2531.118968 2229.110232 2561.401158 2229.110232 C 2591.620521 2229.110232 2616.185533 2204.482394 2616.185533 2174.325857 Z M 2616.185533 2174.325857 " stroke="#040505" stroke-width="30" stroke-opacity="1" stroke-miterlimit="10"/><path fill="#fbfcfa" d="M 193.304688 208.113281 C 193.304688 210 191.78125 211.523438 189.898438 211.523438 C 188.015625 211.523438 186.492188 210 186.492188 208.113281 C 186.492188 206.238281 188.015625 204.707031 189.898438 204.707031 C 191.78125 204.707031 193.304688 206.238281 193.304688 208.113281 " fill-opacity="1" fill-rule="nonzero"/><path stroke-linecap="round" transform="matrix(0.0621756, 0, 0, -0.0621756, 55.282474, 328.014178)" fill="none" stroke-linejoin="round" d="M 2219.878377 1928.424429 C 2219.878377 1898.079414 2195.376191 1873.577228 2165.094002 1873.577228 C 2134.811813 1873.577228 2110.309627 1898.079414 2110.309627 1928.424429 C 2110.309627 1958.580966 2134.811813 1983.208804 2165.094002 1983.208804 C 2195.376191 1983.208804 2219.878377 1958.580966 2219.878377 1928.424429 Z M 2219.878377 1928.424429 " stroke="#040505" stroke-width="30" stroke-opacity="1" stroke-miterlimit="10"/><path fill="#fbfcfa" d="M 187.15625 200.074219 C 187.15625 201.960938 185.628906 203.484375 183.75 203.484375 C 181.867188 203.484375 180.34375 201.960938 180.34375 200.074219 C 180.34375 198.199219 181.867188 196.667969 183.75 196.667969 C 185.628906 196.667969 187.15625 198.199219 187.15625 200.074219 " fill-opacity="1" fill-rule="nonzero"/><path stroke-linecap="round" transform="matrix(0.0621756, 0, 0, -0.0621756, 55.282474, 328.014178)" fill="none" stroke-linejoin="round" d="M 2120.990067 2057.720581 C 2120.990067 2027.375566 2096.425055 2002.87338 2066.205692 2002.87338 C 2035.923502 2002.87338 2011.421316 2027.375566 2011.421316 2057.720581 C 2011.421316 2087.877118 2035.923502 2112.504956 2066.205692 2112.504956 C 2096.425055 2112.504956 2120.990067 2087.877118 2120.990067 2057.720581 Z M 2120.990067 2057.720581 " stroke="#040505" stroke-width="30" stroke-opacity="1" stroke-miterlimit="10"/><path fill="#fbfcfa" d="M 163.808594 192.824219 C 163.808594 194.710938 162.28125 196.238281 160.402344 196.238281 C 158.519531 196.238281 156.996094 194.710938 156.996094 192.824219 C 156.996094 190.949219 158.519531 189.417969 160.402344 189.417969 C 162.28125 189.417969 163.808594 190.949219 163.808594 192.824219 " fill-opacity="1" fill-rule="nonzero"/><path stroke-linecap="round" transform="matrix(0.0621756, 0, 0, -0.0621756, 55.282474, 328.014178)" fill="none" stroke-linejoin="round" d="M 1745.478357 2174.325857 C 1745.478357 2143.980842 1720.913344 2119.415829 1690.693981 2119.415829 C 1660.411792 2119.415829 1635.909606 2143.980842 1635.909606 2174.325857 C 1635.909606 2204.482394 1660.411792 2229.110232 1690.693981 2229.110232 C 1720.913344 2229.110232 1745.478357 2204.482394 1745.478357 2174.325857 Z M 1745.478357 2174.325857 " stroke="#040505" stroke-width="30" stroke-opacity="1" stroke-miterlimit="10"/><path fill="#fbfcfa" d="M 165.8125 147.703125 C 165.8125 149.582031 164.28125 151.113281 162.40625 151.113281 C 160.519531 151.113281 158.992188 149.582031 158.992188 147.703125 C 158.992188 145.820312 160.519531 144.292969 162.40625 144.292969 C 164.28125 144.292969 165.8125 145.820312 165.8125 147.703125 " fill-opacity="1" fill-rule="nonzero"/><path stroke-linecap="round" transform="matrix(0.0621756, 0, 0, -0.0621756, 55.282474, 328.014178)" fill="none" stroke-linejoin="round" d="M 1777.708155 2900.030352 C 1777.708155 2869.810989 1753.080317 2845.18315 1722.92378 2845.18315 C 1692.578765 2845.18315 1668.013752 2869.810989 1668.013752 2900.030352 C 1668.013752 2930.312541 1692.578765 2954.877553 1722.92378 2954.877553 C 1753.080317 2954.877553 1777.708155 2930.312541 1777.708155 2900.030352 Z M 1777.708155 2900.030352 " stroke="#040505" stroke-width="30" stroke-opacity="1" stroke-miterlimit="10"/><path fill="#00ced1" d="M 197.261719 170.796875 C 197.261719 175.894531 193.132812 180.023438 188.035156 180.023438 C 182.941406 180.023438 178.808594 175.894531 178.808594 170.796875 C 178.808594 165.703125 182.941406 161.570312 188.035156 161.570312 C 193.132812 161.570312 197.261719 165.703125 197.261719 170.796875 " fill-opacity="1" fill-rule="nonzero"/><path stroke-linecap="round" transform="matrix(0.0621756, 0, 0, -0.0621756, 55.282474, 328.014178)" fill="none" stroke-linejoin="round" d="M 2283.521235 2528.602339 C 2283.521235 2446.614255 2217.114028 2380.207047 2135.125944 2380.207047 C 2053.200685 2380.207047 1986.730652 2446.614255 1986.730652 2528.602339 C 1986.730652 2610.527598 2053.200685 2676.997631 2135.125944 2676.997631 C 2217.114028 2676.997631 2283.521235 2610.527598 2283.521235 2528.602339 Z M 2283.521235 2528.602339 " stroke="#040505" stroke-width="30" stroke-opacity="1" stroke-miterlimit="10"/><g clip-path="url(#82032ae5d3)"><path fill="#bacbe0" d="M 210.316406 111.292969 C 209.753906 111.292969 209.191406 111.132812 208.691406 110.796875 C 202.757812 106.84375 195.855469 104.75 188.726562 104.75 C 181.59375 104.75 174.691406 106.84375 168.761719 110.796875 C 167.410156 111.695312 165.585938 111.332031 164.6875 109.984375 C 163.789062 108.636719 164.152344 106.8125 165.5 105.914062 C 172.398438 101.3125 180.429688 98.878906 188.726562 98.878906 C 197.019531 98.878906 205.050781 101.3125 211.949219 105.914062 C 213.296875 106.8125 213.660156 108.636719 212.761719 109.984375 C 212.195312 110.832031 211.265625 111.292969 210.316406 111.292969 " fill-opacity="1" fill-rule="nonzero"/></g><path fill="#bacbe0" d="M 173.167969 120.367188 C 172.21875 120.367188 171.289062 119.910156 170.722656 119.0625 C 169.824219 117.710938 170.1875 115.886719 171.535156 114.988281 C 176.640625 111.582031 182.585938 109.78125 188.726562 109.78125 C 194.863281 109.78125 200.808594 111.582031 205.914062 114.988281 C 207.261719 115.890625 207.625 117.710938 206.726562 119.0625 C 205.828125 120.410156 204.003906 120.773438 202.652344 119.875 C 198.519531 117.113281 193.699219 115.65625 188.726562 115.65625 C 183.75 115.65625 178.933594 117.113281 174.792969 119.875 C 174.292969 120.207031 173.726562 120.367188 173.167969 120.367188 " fill-opacity="1" fill-rule="nonzero"/><g clip-path="url(#990a09b9a4)"><path fill="#bacbe0" d="M 198.25 129.441406 C 197.691406 129.441406 197.125 129.28125 196.625 128.949219 C 194.277344 127.386719 191.546875 126.558594 188.726562 126.558594 C 185.902344 126.558594 183.171875 127.386719 180.824219 128.949219 C 179.476562 129.847656 177.652344 129.480469 176.753906 128.132812 C 175.855469 126.785156 176.222656 124.960938 177.570312 124.0625 C 180.882812 121.855469 184.738281 120.6875 188.726562 120.6875 C 192.710938 120.6875 196.566406 121.855469 199.878906 124.0625 C 201.226562 124.960938 201.59375 126.785156 200.695312 128.132812 C 200.128906 128.980469 199.199219 129.441406 198.25 129.441406 " fill-opacity="1" fill-rule="nonzero"/></g><g clip-path="url(#7d5e0c9bf1)"><path fill="#01225a" d="M 187.089844 97.496094 C 178.9375 97.496094 171.042969 99.886719 164.261719 104.414062 C 163.765625 104.742188 163.429688 105.246094 163.3125 105.828125 C 163.195312 106.414062 163.3125 107.007812 163.644531 107.5 C 163.972656 107.996094 164.476562 108.332031 165.058594 108.449219 C 165.644531 108.566406 166.238281 108.449219 166.730469 108.117188 C 172.777344 104.085938 179.820312 101.953125 187.089844 101.953125 C 194.363281 101.953125 201.402344 104.085938 207.449219 108.117188 C 207.816406 108.363281 208.242188 108.492188 208.683594 108.492188 C 209.429688 108.492188 210.125 108.121094 210.535156 107.5 C 210.867188 107.007812 210.984375 106.414062 210.867188 105.828125 C 210.753906 105.246094 210.414062 104.742188 209.921875 104.414062 C 203.140625 99.886719 195.246094 97.496094 187.089844 97.496094 Z M 165.503906 109.910156 C 165.261719 109.910156 165.023438 109.886719 164.78125 109.839844 C 163.828125 109.648438 163.003906 109.097656 162.464844 108.289062 C 161.925781 107.476562 161.730469 106.507812 161.921875 105.550781 C 162.113281 104.597656 162.664062 103.773438 163.472656 103.234375 C 170.488281 98.554688 178.65625 96.082031 187.089844 96.082031 C 195.527344 96.082031 203.691406 98.554688 210.707031 103.234375 C 211.515625 103.773438 212.066406 104.597656 212.257812 105.550781 C 212.449219 106.507812 212.257812 107.476562 211.714844 108.289062 C 211.039062 109.304688 209.902344 109.910156 208.683594 109.910156 C 207.960938 109.910156 207.261719 109.699219 206.660156 109.296875 C 200.847656 105.417969 194.082031 103.367188 187.089844 103.367188 C 180.101562 103.367188 173.332031 105.417969 167.519531 109.296875 C 166.914062 109.699219 166.214844 109.910156 165.503906 109.910156 " fill-opacity="1" fill-rule="nonzero"/></g><path fill="#01225a" d="M 187.089844 108.402344 C 181.09375 108.402344 175.285156 110.160156 170.292969 113.488281 C 169.273438 114.171875 168.996094 115.554688 169.675781 116.578125 C 170.089844 117.199219 170.785156 117.570312 171.53125 117.570312 C 171.972656 117.570312 172.398438 117.441406 172.765625 117.195312 C 177.023438 114.355469 181.976562 112.855469 187.089844 112.855469 C 192.207031 112.855469 197.160156 114.355469 201.414062 117.195312 C 202.4375 117.875 203.820312 117.601562 204.503906 116.578125 C 204.832031 116.082031 204.949219 115.488281 204.832031 114.90625 C 204.71875 114.324219 204.378906 113.820312 203.886719 113.488281 C 198.898438 110.160156 193.089844 108.402344 187.089844 108.402344 Z M 171.535156 118.988281 C 170.3125 118.988281 169.175781 118.378906 168.5 117.363281 C 167.382812 115.691406 167.835938 113.425781 169.507812 112.308594 C 174.730469 108.828125 180.8125 106.984375 187.089844 106.984375 C 193.371094 106.984375 199.449219 108.828125 204.671875 112.308594 C 205.480469 112.851562 206.035156 113.671875 206.222656 114.628906 C 206.414062 115.582031 206.222656 116.554688 205.679688 117.363281 C 204.566406 119.035156 202.300781 119.488281 200.628906 118.375 C 196.605469 115.691406 191.925781 114.273438 187.089844 114.273438 C 182.257812 114.273438 177.574219 115.691406 173.554688 118.375 C 172.953125 118.773438 172.253906 118.984375 171.535156 118.988281 " fill-opacity="1" fill-rule="nonzero"/><path fill="#01225a" d="M 187.089844 123.761719 C 190.054688 123.761719 192.921875 124.628906 195.382812 126.269531 C 195.75 126.515625 196.175781 126.644531 196.613281 126.644531 C 197.363281 126.644531 198.058594 126.269531 198.472656 125.648438 C 199.152344 124.628906 198.875 123.242188 197.851562 122.5625 C 194.65625 120.433594 190.933594 119.308594 187.089844 119.308594 C 183.246094 119.308594 179.527344 120.433594 176.328125 122.5625 C 175.308594 123.242188 175.03125 124.628906 175.710938 125.648438 C 176.390625 126.671875 177.777344 126.949219 178.800781 126.269531 C 181.261719 124.628906 184.128906 123.761719 187.089844 123.761719 Z M 196.613281 128.058594 C 195.894531 128.058594 195.199219 127.847656 194.597656 127.449219 C 192.367188 125.964844 189.773438 125.179688 187.089844 125.179688 C 184.410156 125.179688 181.8125 125.964844 179.585938 127.449219 C 177.910156 128.558594 175.644531 128.105469 174.53125 126.433594 C 173.417969 124.765625 173.871094 122.496094 175.542969 121.382812 C 178.972656 119.097656 182.96875 117.890625 187.089844 117.890625 C 191.214844 117.890625 195.207031 119.097656 198.636719 121.382812 C 200.308594 122.496094 200.765625 124.765625 199.652344 126.433594 C 198.972656 127.453125 197.839844 128.058594 196.613281 128.058594 " fill-opacity="1" fill-rule="nonzero"/><g clip-path="url(#f5b8052942)"><path fill="#01225a" d="M 230.679688 266.539062 C 225.792969 266.539062 221.792969 262.539062 221.792969 257.652344 C 221.792969 255.359375 221.734375 252.933594 221.75 250.585938 C 221.765625 248.292969 221.542969 245.496094 222.273438 243.3125 C 223.445312 239.804688 227.011719 237.332031 230.679688 237.332031 C 234.15625 237.332031 237.632812 239.550781 238.949219 242.816406 C 239.785156 244.894531 239.628906 247.601562 239.605469 249.800781 C 239.578125 252.417969 239.570312 255.042969 239.570312 257.652344 C 239.570312 262.539062 235.570312 266.539062 230.679688 266.539062 Z M 230.679688 266.539062 " fill-opacity="1" fill-rule="nonzero"/></g><path fill="#fbfcfa" d="M 230.679688 248.722656 C 229.34375 248.722656 228.253906 247.632812 228.253906 246.296875 L 228.253906 243.316406 C 228.253906 241.976562 229.34375 240.890625 230.679688 240.890625 C 232.019531 240.890625 233.109375 241.976562 233.109375 243.316406 L 233.109375 246.296875 C 233.109375 247.632812 232.019531 248.722656 230.679688 248.722656 Z M 230.679688 241.960938 C 229.933594 241.960938 229.328125 242.570312 229.328125 243.316406 L 229.328125 246.296875 C 229.328125 247.042969 229.933594 247.652344 230.679688 247.652344 C 231.429688 247.652344 232.035156 247.042969 232.035156 246.296875 L 232.035156 243.316406 C 232.035156 242.570312 231.429688 241.960938 230.679688 241.960938 Z M 230.679688 241.960938 " fill-opacity="1" fill-rule="nonzero"/><g clip-path="url(#3c7cc3b835)"><path fill="#fbfcfa" d="M 230.679688 250.597656 C 230.394531 250.597656 230.160156 250.375 230.144531 250.085938 C 230.027344 247.511719 230.027344 244.867188 230.136719 242.230469 C 230.152344 241.875 230.160156 241.472656 230.171875 241.046875 C 230.265625 237.449219 230.410156 232.015625 233.394531 230.152344 C 233.894531 229.839844 234.589844 229.492188 235.390625 229.089844 C 237.855469 227.851562 241.574219 225.980469 241.972656 223.796875 C 242.121094 222.988281 241.804688 222.171875 241.003906 221.300781 C 240.800781 221.085938 240.816406 220.746094 241.035156 220.542969 C 241.253906 220.34375 241.589844 220.359375 241.792969 220.574219 C 242.824219 221.695312 243.238281 222.84375 243.03125 223.992188 C 242.535156 226.699219 238.683594 228.632812 235.875 230.046875 C 235.09375 230.4375 234.417969 230.777344 233.964844 231.0625 C 231.464844 232.621094 231.328125 237.914062 231.246094 241.074219 C 231.234375 241.503906 231.222656 241.914062 231.207031 242.273438 C 231.097656 244.882812 231.101562 247.492188 231.214844 250.035156 C 231.230469 250.332031 231 250.582031 230.703125 250.597656 C 230.695312 250.597656 230.6875 250.597656 230.679688 250.597656 Z M 230.679688 250.597656 " fill-opacity="1" fill-rule="nonzero"/></g></svg>