<svg xmlns="http://www.w3.org/2000/svg" xmlns:xlink="http://www.w3.org/1999/xlink" width="222" zoomAndPan="magnify" viewBox="0 0 166.5 183.000001" height="244" preserveAspectRatio="xMidYMid meet" version="1.0"><defs><clipPath id="a49bdfdc29"><path d="M 0.203125 0 L 165.800781 0 L 165.800781 182.003906 L 0.203125 182.003906 Z M 0.203125 0 " clip-rule="nonzero"/></clipPath><clipPath id="57b1018737"><path d="M 0.203125 16.632812 L 165.800781 16.632812 L 165.800781 182 L 0.203125 182 Z M 0.203125 16.632812 " clip-rule="nonzero"/></clipPath><clipPath id="b2839cad8e"><path d="M 59.59375 2.578125 L 108.46875 2.578125 L 108.46875 15.257812 L 59.59375 15.257812 Z M 59.59375 2.578125 " clip-rule="nonzero"/></clipPath><clipPath id="1f4281a286"><path d="M 71.433594 24.277344 L 96.515625 24.277344 L 96.515625 33.21875 L 71.433594 33.21875 Z M 71.433594 24.277344 " clip-rule="nonzero"/></clipPath><clipPath id="6515911b13"><path d="M 57.226562 0 L 108 0 L 108 14 L 57.226562 14 Z M 57.226562 0 " clip-rule="nonzero"/></clipPath><clipPath id="39e1b3f172"><path d="M 116.710938 140 L 135 140 L 135 169.851562 L 116.710938 169.851562 Z M 116.710938 140 " clip-rule="nonzero"/></clipPath><clipPath id="5139b2999e"><path d="M 125 123.601562 L 138.34375 123.601562 L 138.34375 154 L 125 154 Z M 125 123.601562 " clip-rule="nonzero"/></clipPath></defs><g clip-path="url(#a49bdfdc29)"><path fill="#ffffff" d="M 0.203125 0 L 165.800781 0 L 165.800781 182.003906 L 0.203125 182.003906 Z M 0.203125 0 " fill-opacity="1" fill-rule="nonzero"/></g><g clip-path="url(#57b1018737)"><path fill="#00ced1" d="M 165.457031 99.246094 C 165.457031 144.890625 128.460938 181.886719 82.820312 181.886719 C 37.175781 181.886719 0.179688 144.890625 0.179688 99.246094 C 0.175781 53.605469 37.175781 16.605469 82.820312 16.605469 C 128.460938 16.605469 165.457031 53.605469 165.457031 99.246094 " fill-opacity="1" fill-rule="nonzero"/></g><path fill="#fbfcfa" d="M 97.035156 155.5 L 68.601562 155.5 L 68.601562 140.605469 L 97.035156 140.605469 L 97.035156 155.5 " fill-opacity="1" fill-rule="nonzero"/><path stroke-linecap="round" transform="matrix(0.0618377, 0, 0, -0.0618377, -48.64795, 230.713437)" fill="none" stroke-linejoin="round" d="M 2355.895957 1216.304606 L 1896.085685 1216.304606 L 1896.085685 1457.169637 L 2355.895957 1457.169637 Z M 2355.895957 1216.304606 " stroke="#040505" stroke-width="50" stroke-opacity="1" stroke-miterlimit="10"/><path fill="#fbfcfa" d="M 139.382812 140.605469 L 26.257812 140.605469 L 26.257812 73.675781 L 139.382812 73.675781 L 139.382812 140.605469 " fill-opacity="1" fill-rule="nonzero"/><path stroke-linecap="round" transform="matrix(0.0618377, 0, 0, -0.0618377, -48.64795, 230.713437)" fill="none" stroke-linejoin="round" d="M 3040.715734 1457.169637 L 1211.329077 1457.169637 L 1211.329077 2539.51463 L 3040.715734 2539.51463 Z M 3040.715734 1457.169637 " stroke="#040505" stroke-width="50" stroke-opacity="1" stroke-miterlimit="10"/><path fill="#00ced1" d="M 130.902344 133.722656 L 34.738281 133.722656 L 34.738281 80.554688 L 130.902344 80.554688 L 130.902344 133.722656 " fill-opacity="1" fill-rule="nonzero"/><path stroke-linecap="round" transform="matrix(0.0618377, 0, 0, -0.0618377, -48.64795, 230.713437)" fill="none" stroke-linejoin="round" d="M 2903.574904 1568.474171 L 1348.469907 1568.474171 L 1348.469907 2428.273266 L 2903.574904 2428.273266 Z M 2903.574904 1568.474171 " stroke="#040505" stroke-width="30" stroke-opacity="1" stroke-miterlimit="10"/><path fill="#fbfcfa" d="M 106.285156 161.027344 L 59.34375 161.027344 L 59.34375 155.5 L 106.285156 155.5 L 106.285156 161.027344 " fill-opacity="1" fill-rule="nonzero"/><path stroke-linecap="round" transform="matrix(0.0618377, 0, 0, -0.0618377, -48.64795, 230.713437)" fill="none" stroke-linejoin="round" d="M 2505.481164 1126.919864 L 1746.374138 1126.919864 L 1746.374138 1216.304606 L 2505.481164 1216.304606 Z M 2505.481164 1126.919864 " stroke="#040505" stroke-width="50" stroke-opacity="1" stroke-miterlimit="10"/><path stroke-linecap="round" transform="matrix(0.0618377, 0, 0, -0.0618377, -48.64795, 230.713437)" fill="none" stroke-linejoin="round" d="M 2211.869659 2726.117122 L 2211.869659 2856.309315 L 2398.914338 2856.309315 L 2398.914338 3138.423984 " stroke="#040505" stroke-width="30" stroke-opacity="1" stroke-miterlimit="10"/><path stroke-linecap="round" transform="matrix(0.0618377, 0, 0, -0.0618377, -48.64795, 230.713437)" fill="none" stroke-linejoin="round" d="M 2164.429418 1916.979909 L 2164.429418 2047.172102 L 2259.3099 2047.172102 L 2259.3099 2309.072554 " stroke="#040505" stroke-width="30" stroke-opacity="1" stroke-miterlimit="10"/><path stroke-linecap="round" transform="matrix(0.0618377, 0, 0, -0.0618377, -48.64795, 230.713437)" fill="none" stroke-linejoin="round" d="M 2118.378904 2726.117122 L 2118.378904 2969.69844 L 2211.869659 2969.69844 L 2211.869659 3073.991167 " stroke="#040505" stroke-width="30" stroke-opacity="1" stroke-miterlimit="10"/><path stroke-linecap="round" transform="matrix(0.0618377, 0, 0, -0.0618377, -48.64795, 230.713437)" fill="none" stroke-linejoin="round" d="M 2342.125021 2676.971307 L 2529.10653 2676.971307 L 2529.10653 2896.106055 " stroke="#040505" stroke-width="30" stroke-opacity="1" stroke-miterlimit="10"/><path stroke-linecap="round" transform="matrix(0.0618377, 0, 0, -0.0618377, -48.64795, 230.713437)" fill="none" stroke-linejoin="round" d="M 2561.386108 2157.529094 L 2561.386108 2344.510603 L 2342.125021 2344.510603 " stroke="#040505" stroke-width="30" stroke-opacity="1" stroke-miterlimit="10"/><path stroke-linecap="round" transform="matrix(0.0618377, 0, 0, -0.0618377, -48.64795, 230.713437)" fill="none" stroke-linejoin="round" d="M 2040.175152 2726.117122 L 2040.175152 2856.309315 L 1853.130473 2856.309315 L 1853.130473 3138.423984 " stroke="#040505" stroke-width="30" stroke-opacity="1" stroke-miterlimit="10"/><path stroke-linecap="round" transform="matrix(0.0618377, 0, 0, -0.0618377, -48.64795, 230.713437)" fill="none" stroke-linejoin="round" d="M 2066.200956 2051.025437 L 2066.200956 2153.675759 L 2010.990876 2153.675759 L 2010.990876 2309.072554 " stroke="#040505" stroke-width="30" stroke-opacity="1" stroke-miterlimit="10"/><path stroke-linecap="round" transform="matrix(0.0618377, 0, 0, -0.0618377, -48.64795, 230.713437)" fill="none" stroke-linejoin="round" d="M 1909.91979 2676.971307 L 1722.875111 2676.971307 L 1722.875111 2896.106055 " stroke="#040505" stroke-width="30" stroke-opacity="1" stroke-miterlimit="10"/><path stroke-linecap="round" transform="matrix(0.0618377, 0, 0, -0.0618377, -48.64795, 230.713437)" fill="none" stroke-linejoin="round" d="M 1690.721872 2157.529094 L 1690.721872 2344.510603 L 1909.91979 2344.510603 " stroke="#040505" stroke-width="30" stroke-opacity="1" stroke-miterlimit="10"/><path fill="#fbfcfa" d="M 70.402344 88.851562 C 69.886719 88.851562 69.472656 88.429688 69.472656 87.925781 L 69.472656 62.136719 C 69.472656 61.625 69.886719 61.210938 70.402344 61.210938 L 96.183594 61.210938 C 96.695312 61.210938 97.109375 61.625 97.109375 62.136719 L 97.109375 87.925781 C 97.109375 88.429688 96.695312 88.851562 96.183594 88.851562 L 70.402344 88.851562 " fill-opacity="1" fill-rule="nonzero"/><path fill="#01225a" d="M 96.183594 60.28125 L 70.402344 60.28125 C 69.375 60.28125 68.546875 61.109375 68.546875 62.136719 L 68.546875 87.925781 C 68.546875 88.945312 69.375 89.777344 70.402344 89.777344 L 96.183594 89.777344 C 97.207031 89.777344 98.039062 88.945312 98.039062 87.925781 L 98.039062 62.136719 C 98.039062 61.109375 97.207031 60.28125 96.183594 60.28125 Z M 96.183594 62.136719 L 96.183594 87.925781 L 70.402344 87.925781 L 70.402344 62.136719 L 96.183594 62.136719 " fill-opacity="1" fill-rule="nonzero"/><path fill="#fbfcfa" d="M 69.332031 40.03125 C 69.332031 41.90625 67.816406 43.417969 65.945312 43.417969 C 64.074219 43.417969 62.554688 41.90625 62.554688 40.03125 C 62.554688 38.164062 64.074219 36.640625 65.945312 36.640625 C 67.816406 36.640625 69.332031 38.164062 69.332031 40.03125 " fill-opacity="1" fill-rule="nonzero"/><path stroke-linecap="round" transform="matrix(0.0618377, 0, 0, -0.0618377, -48.64795, 230.713437)" fill="none" stroke-linejoin="round" d="M 1907.898368 3083.59292 C 1907.898368 3053.271594 1883.388629 3028.825025 1853.130473 3028.825025 C 1822.872317 3028.825025 1798.299409 3053.271594 1798.299409 3083.59292 C 1798.299409 3113.787907 1822.872317 3138.423984 1853.130473 3138.423984 C 1883.388629 3138.423984 1907.898368 3113.787907 1907.898368 3083.59292 Z M 1907.898368 3083.59292 " stroke="#040505" stroke-width="30" stroke-opacity="1" stroke-miterlimit="10"/><path fill="#fbfcfa" d="M 91.519531 40.03125 C 91.519531 41.90625 90 43.417969 88.128906 43.417969 C 86.257812 43.417969 84.742188 41.90625 84.742188 40.03125 C 84.742188 38.164062 86.257812 36.640625 88.128906 36.640625 C 90 36.640625 91.519531 38.164062 91.519531 40.03125 " fill-opacity="1" fill-rule="nonzero"/><path stroke-linecap="round" transform="matrix(0.0618377, 0, 0, -0.0618377, -48.64795, 230.713437)" fill="none" stroke-linejoin="round" d="M 2266.700723 3083.59292 C 2266.700723 3053.271594 2242.127815 3028.825025 2211.869659 3028.825025 C 2181.611503 3028.825025 2157.101764 3053.271594 2157.101764 3083.59292 C 2157.101764 3113.787907 2181.611503 3138.423984 2211.869659 3138.423984 C 2242.127815 3138.423984 2266.700723 3113.787907 2266.700723 3083.59292 Z M 2266.700723 3083.59292 " stroke="#040505" stroke-width="30" stroke-opacity="1" stroke-miterlimit="10"/><path fill="#fbfcfa" d="M 103.082031 37.234375 C 103.082031 39.109375 101.5625 40.625 99.695312 40.625 C 97.820312 40.625 96.304688 39.109375 96.304688 37.234375 C 96.304688 35.363281 97.820312 33.847656 99.695312 33.847656 C 101.5625 33.847656 103.082031 35.363281 103.082031 37.234375 " fill-opacity="1" fill-rule="nonzero"/><path stroke-linecap="round" transform="matrix(0.0618377, 0, 0, -0.0618377, -48.64795, 230.713437)" fill="none" stroke-linejoin="round" d="M 2453.682232 3128.822231 C 2453.682232 3098.500905 2429.109325 3073.991167 2398.914338 3073.991167 C 2368.593012 3073.991167 2344.083273 3098.500905 2344.083273 3128.822231 C 2344.083273 3159.080387 2368.593012 3183.590126 2398.914338 3183.590126 C 2429.109325 3183.590126 2453.682232 3159.080387 2453.682232 3128.822231 Z M 2453.682232 3128.822231 " stroke="#040505" stroke-width="30" stroke-opacity="1" stroke-miterlimit="10"/><path fill="#fbfcfa" d="M 111.132812 53.289062 C 111.132812 55.15625 109.621094 56.675781 107.746094 56.675781 C 105.878906 56.675781 104.355469 55.15625 104.355469 53.289062 C 104.355469 51.414062 105.878906 49.898438 107.746094 49.898438 C 109.621094 49.898438 111.132812 51.414062 111.132812 53.289062 " fill-opacity="1" fill-rule="nonzero"/><path stroke-linecap="round" transform="matrix(0.0618377, 0, 0, -0.0618377, -48.64795, 230.713437)" fill="none" stroke-linejoin="round" d="M 2583.874425 2869.195879 C 2583.874425 2839.000892 2559.427856 2814.427984 2529.10653 2814.427984 C 2498.911543 2814.427984 2474.275466 2839.000892 2474.275466 2869.195879 C 2474.275466 2899.517204 2498.911543 2924.026943 2529.10653 2924.026943 C 2559.427856 2924.026943 2583.874425 2899.517204 2583.874425 2869.195879 Z M 2583.874425 2869.195879 " stroke="#040505" stroke-width="30" stroke-opacity="1" stroke-miterlimit="10"/><path fill="#fbfcfa" d="M 113.132812 96.261719 C 113.132812 98.132812 111.609375 99.65625 109.742188 99.65625 C 107.871094 99.65625 106.355469 98.132812 106.355469 96.261719 C 106.355469 94.390625 107.871094 92.871094 109.742188 92.871094 C 111.609375 92.871094 113.132812 94.390625 113.132812 96.261719 " fill-opacity="1" fill-rule="nonzero"/><path stroke-linecap="round" transform="matrix(0.0618377, 0, 0, -0.0618377, -48.64795, 230.713437)" fill="none" stroke-linejoin="round" d="M 2616.217173 2174.268993 C 2616.217173 2144.010836 2591.581095 2119.374759 2561.386108 2119.374759 C 2531.127952 2119.374759 2506.618214 2144.010836 2506.618214 2174.268993 C 2506.618214 2204.527149 2531.127952 2229.100057 2561.386108 2229.100057 C 2591.581095 2229.100057 2616.217173 2204.527149 2616.217173 2174.268993 Z M 2616.217173 2174.268993 " stroke="#040505" stroke-width="30" stroke-opacity="1" stroke-miterlimit="10"/><path fill="#fbfcfa" d="M 88.625 111.464844 C 88.625 113.339844 87.109375 114.855469 85.238281 114.855469 C 83.363281 114.855469 81.847656 113.339844 81.847656 111.464844 C 81.847656 109.597656 83.363281 108.078125 85.238281 108.078125 C 87.109375 108.078125 88.625 109.597656 88.625 111.464844 " fill-opacity="1" fill-rule="nonzero"/><path stroke-linecap="round" transform="matrix(0.0618377, 0, 0, -0.0618377, -48.64795, 230.713437)" fill="none" stroke-linejoin="round" d="M 2219.892176 1928.413576 C 2219.892176 1898.09225 2195.382438 1873.582512 2165.124282 1873.582512 C 2134.802956 1873.582512 2110.293218 1898.09225 2110.293218 1928.413576 C 2110.293218 1958.608563 2134.802956 1983.181471 2165.124282 1983.181471 C 2195.382438 1983.181471 2219.892176 1958.608563 2219.892176 1928.413576 Z M 2219.892176 1928.413576 " stroke="#040505" stroke-width="30" stroke-opacity="1" stroke-miterlimit="10"/><path fill="#fbfcfa" d="M 82.507812 103.46875 C 82.507812 105.34375 80.988281 106.859375 79.121094 106.859375 C 77.246094 106.859375 75.730469 105.34375 75.730469 103.46875 C 75.730469 101.601562 77.246094 100.082031 79.121094 100.082031 C 80.988281 100.082031 82.507812 101.601562 82.507812 103.46875 " fill-opacity="1" fill-rule="nonzero"/><path stroke-linecap="round" transform="matrix(0.0618377, 0, 0, -0.0618377, -48.64795, 230.713437)" fill="none" stroke-linejoin="round" d="M 2120.968851 2057.721397 C 2120.968851 2027.400071 2096.395943 2002.890333 2066.200956 2002.890333 C 2035.879631 2002.890333 2011.369892 2027.400071 2011.369892 2057.721397 C 2011.369892 2087.916384 2035.879631 2112.489291 2066.200956 2112.489291 C 2096.395943 2112.489291 2120.968851 2087.916384 2120.968851 2057.721397 Z M 2120.968851 2057.721397 " stroke="#040505" stroke-width="30" stroke-opacity="1" stroke-miterlimit="10"/><path fill="#fbfcfa" d="M 59.289062 96.261719 C 59.289062 98.132812 57.769531 99.65625 55.902344 99.65625 C 54.027344 99.65625 52.511719 98.132812 52.511719 96.261719 C 52.511719 94.390625 54.027344 92.871094 55.902344 92.871094 C 57.769531 92.871094 59.289062 94.390625 59.289062 96.261719 " fill-opacity="1" fill-rule="nonzero"/><path stroke-linecap="round" transform="matrix(0.0618377, 0, 0, -0.0618377, -48.64795, 230.713437)" fill="none" stroke-linejoin="round" d="M 1745.489766 2174.268993 C 1745.489766 2144.010836 1720.916859 2119.374759 1690.721872 2119.374759 C 1660.400546 2119.374759 1635.890808 2144.010836 1635.890808 2174.268993 C 1635.890808 2204.527149 1660.400546 2229.100057 1690.721872 2229.100057 C 1720.916859 2229.100057 1745.489766 2204.527149 1745.489766 2174.268993 Z M 1745.489766 2174.268993 " stroke="#040505" stroke-width="30" stroke-opacity="1" stroke-miterlimit="10"/><path fill="#fbfcfa" d="M 61.28125 51.382812 C 61.28125 53.25 59.757812 54.773438 57.890625 54.773438 C 56.019531 54.773438 54.496094 53.25 54.496094 51.382812 C 54.496094 49.511719 56.019531 47.988281 57.890625 47.988281 C 59.757812 47.988281 61.28125 49.511719 61.28125 51.382812 " fill-opacity="1" fill-rule="nonzero"/><path stroke-linecap="round" transform="matrix(0.0618377, 0, 0, -0.0618377, -48.64795, 230.713437)" fill="none" stroke-linejoin="round" d="M 1777.706175 2900.02256 C 1777.706175 2869.827573 1753.070098 2845.191496 1722.875111 2845.191496 C 1692.616955 2845.191496 1667.980877 2869.827573 1667.980877 2900.02256 C 1667.980877 2930.280716 1692.616955 2954.916793 1722.875111 2954.916793 C 1753.070098 2954.916793 1777.706175 2930.280716 1777.706175 2900.02256 Z M 1777.706175 2900.02256 " stroke="#040505" stroke-width="30" stroke-opacity="1" stroke-miterlimit="10"/><path fill="#00ced1" d="M 92.558594 74.351562 C 92.558594 79.421875 88.453125 83.527344 83.382812 83.527344 C 78.316406 83.527344 74.203125 79.421875 74.203125 74.351562 C 74.203125 69.285156 78.316406 65.175781 83.382812 65.175781 C 88.453125 65.175781 92.558594 69.285156 92.558594 74.351562 " fill-opacity="1" fill-rule="nonzero"/><path stroke-linecap="round" transform="matrix(0.0618377, 0, 0, -0.0618377, -48.64795, 230.713437)" fill="none" stroke-linejoin="round" d="M 2283.503791 2528.586319 C 2283.503791 2446.5924 2217.112722 2380.201331 2135.118803 2380.201331 C 2053.188054 2380.201331 1986.670646 2446.5924 1986.670646 2528.586319 C 1986.670646 2610.517068 2053.188054 2676.971307 2135.118803 2676.971307 C 2217.112722 2676.971307 2283.503791 2610.517068 2283.503791 2528.586319 Z M 2283.503791 2528.586319 " stroke="#040505" stroke-width="30" stroke-opacity="1" stroke-miterlimit="10"/><g clip-path="url(#b2839cad8e)"><path fill="#bacbe0" d="M 105.542969 15.167969 C 104.984375 15.167969 104.421875 15.007812 103.925781 14.679688 C 98.027344 10.742188 91.160156 8.664062 84.070312 8.664062 C 76.976562 8.664062 70.109375 10.742188 64.210938 14.679688 C 62.871094 15.570312 61.054688 15.210938 60.164062 13.867188 C 59.269531 12.527344 59.628906 10.714844 60.972656 9.820312 C 67.832031 5.242188 75.820312 2.824219 84.070312 2.824219 C 92.320312 2.824219 100.304688 5.242188 107.164062 9.820312 C 108.507812 10.714844 108.871094 12.527344 107.972656 13.867188 C 107.414062 14.710938 106.488281 15.167969 105.542969 15.167969 " fill-opacity="1" fill-rule="nonzero"/></g><path fill="#bacbe0" d="M 68.597656 24.195312 C 67.652344 24.195312 66.726562 23.738281 66.164062 22.894531 C 65.269531 21.554688 65.632812 19.742188 66.972656 18.847656 C 72.050781 15.460938 77.964844 13.667969 84.070312 13.667969 C 90.175781 13.667969 96.085938 15.460938 101.164062 18.847656 C 102.503906 19.742188 102.867188 21.554688 101.972656 22.894531 C 101.078125 24.238281 99.265625 24.597656 97.921875 23.703125 C 93.808594 20.960938 89.019531 19.507812 84.070312 19.507812 C 79.121094 19.507812 74.328125 20.960938 70.214844 23.703125 C 69.714844 24.035156 69.152344 24.195312 68.597656 24.195312 " fill-opacity="1" fill-rule="nonzero"/><g clip-path="url(#1f4281a286)"><path fill="#bacbe0" d="M 93.542969 33.21875 C 92.984375 33.21875 92.421875 33.0625 91.925781 32.730469 C 89.59375 31.175781 86.875 30.355469 84.070312 30.355469 C 81.261719 30.355469 78.546875 31.175781 76.214844 32.730469 C 74.871094 33.621094 73.058594 33.261719 72.164062 31.917969 C 71.269531 30.578125 71.632812 28.761719 72.976562 27.871094 C 76.269531 25.675781 80.105469 24.515625 84.070312 24.515625 C 88.03125 24.515625 91.867188 25.675781 95.164062 27.871094 C 96.503906 28.761719 96.867188 30.578125 95.972656 31.917969 C 95.410156 32.761719 94.484375 33.21875 93.542969 33.21875 " fill-opacity="1" fill-rule="nonzero"/></g><g clip-path="url(#6515911b13)"><path fill="#01225a" d="M 82.445312 1.449219 C 74.332031 1.449219 66.480469 3.828125 59.738281 8.328125 C 59.246094 8.65625 58.910156 9.15625 58.792969 9.734375 C 58.679688 10.316406 58.796875 10.90625 59.125 11.398438 C 59.453125 11.890625 59.953125 12.226562 60.53125 12.339844 C 61.113281 12.457031 61.703125 12.339844 62.195312 12.011719 C 68.210938 8 75.210938 5.878906 82.445312 5.878906 C 89.675781 5.878906 96.675781 8 102.691406 12.011719 C 103.054688 12.257812 103.480469 12.386719 103.917969 12.386719 C 104.660156 12.386719 105.351562 12.015625 105.761719 11.398438 C 106.089844 10.90625 106.207031 10.316406 106.09375 9.734375 C 105.976562 9.15625 105.640625 8.65625 105.148438 8.328125 C 98.40625 3.828125 90.554688 1.449219 82.445312 1.449219 Z M 60.972656 13.796875 C 60.734375 13.796875 60.496094 13.773438 60.257812 13.722656 C 59.308594 13.535156 58.488281 12.984375 57.953125 12.179688 C 57.414062 11.375 57.222656 10.410156 57.414062 9.460938 C 57.601562 8.511719 58.148438 7.691406 58.953125 7.15625 C 65.929688 2.5 74.054688 0.0390625 82.445312 0.0390625 C 90.832031 0.0390625 98.957031 2.5 105.929688 7.15625 C 106.738281 7.691406 107.285156 8.511719 107.476562 9.460938 C 107.664062 10.410156 107.472656 11.375 106.933594 12.179688 C 106.261719 13.191406 105.132812 13.796875 103.917969 13.796875 C 103.203125 13.796875 102.507812 13.582031 101.910156 13.183594 C 96.128906 9.328125 89.394531 7.289062 82.445312 7.289062 C 75.492188 7.289062 68.757812 9.328125 62.980469 13.183594 C 62.375 13.585938 61.683594 13.796875 60.972656 13.796875 " fill-opacity="1" fill-rule="nonzero"/></g><path fill="#01225a" d="M 82.445312 12.292969 C 76.480469 12.292969 70.703125 14.042969 65.738281 17.355469 C 64.722656 18.03125 64.449219 19.410156 65.125 20.425781 C 65.535156 21.042969 66.226562 21.414062 66.96875 21.414062 C 67.410156 21.414062 67.832031 21.285156 68.199219 21.039062 C 72.429688 18.21875 77.355469 16.726562 82.445312 16.726562 C 87.53125 16.726562 92.457031 18.21875 96.6875 21.039062 C 97.707031 21.71875 99.082031 21.441406 99.761719 20.425781 C 100.089844 19.933594 100.207031 19.34375 100.089844 18.761719 C 99.976562 18.183594 99.640625 17.683594 99.148438 17.355469 C 94.1875 14.042969 88.410156 12.292969 82.445312 12.292969 Z M 66.972656 22.820312 C 65.753906 22.820312 64.625 22.21875 63.953125 21.207031 C 62.84375 19.546875 63.292969 17.292969 64.957031 16.183594 C 70.152344 12.71875 76.199219 10.886719 82.445312 10.886719 C 88.691406 10.886719 94.734375 12.71875 99.929688 16.183594 C 100.734375 16.71875 101.285156 17.539062 101.472656 18.488281 C 101.664062 19.4375 101.472656 20.402344 100.933594 21.207031 C 99.824219 22.871094 97.570312 23.320312 95.90625 22.210938 C 91.90625 19.542969 87.253906 18.132812 82.445312 18.132812 C 77.636719 18.132812 72.980469 19.542969 68.980469 22.210938 C 68.382812 22.609375 67.6875 22.820312 66.972656 22.820312 " fill-opacity="1" fill-rule="nonzero"/><path fill="#01225a" d="M 82.445312 27.570312 C 85.390625 27.570312 88.242188 28.433594 90.691406 30.066406 C 91.054688 30.308594 91.480469 30.4375 91.917969 30.4375 C 92.660156 30.4375 93.351562 30.066406 93.761719 29.449219 C 94.441406 28.433594 94.164062 27.054688 93.148438 26.375 C 89.96875 24.261719 86.265625 23.140625 82.445312 23.140625 C 78.621094 23.140625 74.917969 24.261719 71.742188 26.375 C 70.722656 27.054688 70.449219 28.433594 71.125 29.449219 C 71.800781 30.464844 73.179688 30.742188 74.199219 30.0625 C 76.644531 28.433594 79.5 27.570312 82.445312 27.570312 Z M 91.917969 31.847656 C 91.199219 31.847656 90.507812 31.636719 89.910156 31.238281 C 87.691406 29.761719 85.109375 28.980469 82.445312 28.980469 C 79.777344 28.980469 77.195312 29.761719 74.976562 31.238281 C 73.3125 32.34375 71.058594 31.890625 69.953125 30.230469 C 68.84375 28.566406 69.296875 26.3125 70.957031 25.203125 C 74.371094 22.933594 78.34375 21.730469 82.445312 21.730469 C 86.546875 21.730469 90.515625 22.933594 93.929688 25.203125 C 95.589844 26.3125 96.042969 28.566406 94.9375 30.230469 C 94.261719 31.242188 93.132812 31.847656 91.917969 31.847656 " fill-opacity="1" fill-rule="nonzero"/><g clip-path="url(#39e1b3f172)"><path fill="#01225a" d="M 125.796875 169.574219 C 120.933594 169.574219 116.957031 165.597656 116.957031 160.734375 C 116.957031 158.453125 116.898438 156.039062 116.914062 153.707031 C 116.929688 151.425781 116.707031 148.640625 117.433594 146.472656 C 118.601562 142.980469 122.144531 140.527344 125.796875 140.527344 C 129.253906 140.527344 132.710938 142.730469 134.019531 145.980469 C 134.851562 148.046875 134.699219 150.738281 134.671875 152.925781 C 134.644531 155.53125 134.636719 158.140625 134.636719 160.734375 C 134.636719 165.597656 130.660156 169.574219 125.796875 169.574219 Z M 125.796875 169.574219 " fill-opacity="1" fill-rule="nonzero"/></g><path fill="#fbfcfa" d="M 125.796875 151.851562 C 124.464844 151.851562 123.382812 150.769531 123.382812 149.441406 L 123.382812 146.476562 C 123.382812 145.144531 124.464844 144.0625 125.796875 144.0625 C 127.128906 144.0625 128.210938 145.144531 128.210938 146.476562 L 128.210938 149.441406 C 128.210938 150.769531 127.128906 151.851562 125.796875 151.851562 Z M 125.796875 145.128906 C 125.054688 145.128906 124.449219 145.734375 124.449219 146.476562 L 124.449219 149.441406 C 124.449219 150.183594 125.054688 150.785156 125.796875 150.785156 C 126.539062 150.785156 127.144531 150.183594 127.144531 149.441406 L 127.144531 146.476562 C 127.144531 145.734375 126.539062 145.128906 125.796875 145.128906 Z M 125.796875 145.128906 " fill-opacity="1" fill-rule="nonzero"/><g clip-path="url(#5139b2999e)"><path fill="#fbfcfa" d="M 125.796875 153.71875 C 125.511719 153.71875 125.277344 153.496094 125.265625 153.207031 C 125.148438 150.648438 125.144531 148.019531 125.253906 145.394531 C 125.269531 145.042969 125.28125 144.644531 125.292969 144.21875 C 125.386719 140.640625 125.527344 135.234375 128.496094 133.382812 C 128.992188 133.074219 129.683594 132.726562 130.484375 132.324219 C 132.933594 131.09375 136.632812 129.234375 137.03125 127.0625 C 137.175781 126.257812 136.859375 125.445312 136.0625 124.582031 C 135.863281 124.363281 135.878906 124.027344 136.09375 123.828125 C 136.3125 123.628906 136.648438 123.640625 136.847656 123.859375 C 137.871094 124.972656 138.285156 126.113281 138.078125 127.253906 C 137.585938 129.949219 133.757812 131.875 130.960938 133.277344 C 130.1875 133.667969 129.515625 134.003906 129.0625 134.289062 C 126.578125 135.835938 126.441406 141.101562 126.355469 144.246094 C 126.347656 144.675781 126.335938 145.078125 126.320312 145.441406 C 126.210938 148.03125 126.214844 150.628906 126.328125 153.160156 C 126.34375 153.453125 126.117188 153.703125 125.820312 153.71875 C 125.8125 153.71875 125.804688 153.71875 125.796875 153.71875 Z M 125.796875 153.71875 " fill-opacity="1" fill-rule="nonzero"/></g></svg>